<svg viewBox="0 0 1498 400" xmlns="http://www.w3.org/2000/svg"><g><g><g><g><g><line x1="50" y1="377" x2="45" y2="377" style="visibility: inherit;" fill="rgb(0, 0, 0)" stroke="rgb(204, 204, 204)" stroke-width="1px"></line><line x1="50" y1="339.3" x2="45" y2="339.3" style="visibility: inherit;" fill="rgb(0, 0, 0)" stroke="rgb(204, 204, 204)" stroke-width="1px"></line><line x1="50" y1="301.6" x2="45" y2="301.6" style="visibility: inherit;" fill="rgb(0, 0, 0)" stroke="rgb(204, 204, 204)" stroke-width="1px"></line><line x1="50" y1="263.9" x2="45" y2="263.9" style="visibility: inherit;" fill="rgb(0, 0, 0)" stroke="rgb(204, 204, 204)" stroke-width="1px"></line><line x1="50" y1="226.2" x2="45" y2="226.2" style="visibility: inherit;" fill="rgb(0, 0, 0)" stroke="rgb(204, 204, 204)" stroke-width="1px"></line><line x1="50" y1="188.5" x2="45" y2="188.5" style="visibility: inherit;" fill="rgb(0, 0, 0)" stroke="rgb(204, 204, 204)" stroke-width="1px"></line><line x1="50" y1="150.8" x2="45" y2="150.8" style="visibility: inherit;" fill="rgb(0, 0, 0)" stroke="rgb(204, 204, 204)" stroke-width="1px"></line><line x1="50" y1="113.10000000000002" x2="45" y2="113.10000000000002" style="visibility: inherit;" fill="rgb(0, 0, 0)" stroke="rgb(204, 204, 204)" stroke-width="1px"></line><line x1="50" y1="75.40000000000002" x2="45" y2="75.40000000000002" style="visibility: inherit;" fill="rgb(0, 0, 0)" stroke="rgb(204, 204, 204)" stroke-width="1px"></line><line x1="50" y1="37.69999999999999" x2="45" y2="37.69999999999999" style="visibility: inherit;" fill="rgb(0, 0, 0)" stroke="rgb(204, 204, 204)" stroke-width="1px"></line><line x1="50" y1="0" x2="45" y2="0" style="visibility: inherit;" fill="rgb(0, 0, 0)" stroke="rgb(204, 204, 204)" stroke-width="1px"></line></g><g transform="translate(40, 0)"><text x="0" y="377" dx="0em" dy="0.3em" style="text-anchor: end; visibility: hidden; font-family: Roboto, sans-serif; font-size: 12px; font-weight: 200;" fill="rgb(33, 33, 33)" stroke="none" stroke-width="1px">-0.1</text><text x="0" y="339.3" dx="0em" dy="0.3em" style="text-anchor: end; visibility: inherit; font-family: Roboto, sans-serif; font-size: 12px; font-weight: 200;" fill="rgb(33, 33, 33)" stroke="none" stroke-width="1px">0</text><text x="0" y="301.6" dx="0em" dy="0.3em" style="text-anchor: end; visibility: inherit; font-family: Roboto, sans-serif; font-size: 12px; font-weight: 200;" fill="rgb(33, 33, 33)" stroke="none" stroke-width="1px">0.1</text><text x="0" y="263.9" dx="0em" dy="0.3em" style="text-anchor: end; visibility: inherit; font-family: Roboto, sans-serif; font-size: 12px; font-weight: 200;" fill="rgb(33, 33, 33)" stroke="none" stroke-width="1px">0.2</text><text x="0" y="226.2" dx="0em" dy="0.3em" style="text-anchor: end; visibility: inherit; font-family: Roboto, sans-serif; font-size: 12px; font-weight: 200;" fill="rgb(33, 33, 33)" stroke="none" stroke-width="1px">0.3</text><text x="0" y="188.5" dx="0em" dy="0.3em" style="text-anchor: end; visibility: inherit; font-family: Roboto, sans-serif; font-size: 12px; font-weight: 200;" fill="rgb(33, 33, 33)" stroke="none" stroke-width="1px">0.4</text><text x="0" y="150.8" dx="0em" dy="0.3em" style="text-anchor: end; visibility: inherit; font-family: Roboto, sans-serif; font-size: 12px; font-weight: 200;" fill="rgb(33, 33, 33)" stroke="none" stroke-width="1px">0.5</text><text x="0" y="113.10000000000002" dx="0em" dy="0.3em" style="text-anchor: end; visibility: inherit; font-family: Roboto, sans-serif; font-size: 12px; font-weight: 200;" fill="rgb(33, 33, 33)" stroke="none" stroke-width="1px">0.6</text><text x="0" y="75.40000000000002" dx="0em" dy="0.3em" style="text-anchor: end; visibility: inherit; font-family: Roboto, sans-serif; font-size: 12px; font-weight: 200;" fill="rgb(33, 33, 33)" stroke="none" stroke-width="1px">0.7</text><text x="0" y="37.69999999999999" dx="0em" dy="0.3em" style="text-anchor: end; visibility: inherit; font-family: Roboto, sans-serif; font-size: 12px; font-weight: 200;" fill="rgb(33, 33, 33)" stroke="none" stroke-width="1px">0.8</text><text x="0" y="0" dx="0em" dy="0.3em" style="text-anchor: end; visibility: hidden; font-family: Roboto, sans-serif; font-size: 12px; font-weight: 200;" fill="rgb(33, 33, 33)" stroke="none" stroke-width="1px">0.9</text></g><line x1="50" y1="0" x2="50" y2="377" fill="rgb(0, 0, 0)" stroke="rgb(204, 204, 204)" stroke-width="1px"></line></g></g><g transform="translate(50, 0)" clip-path="url(#clip_0)"><clipPath id="clip_0"><rect width="1448" height="377"></rect></clipPath><g><g><g><line x1="0" y1="0" x2="0" y2="377" fill="rgb(0, 0, 0)" stroke="rgb(66, 66, 66)" stroke-width="1px" opacity="0.25"></line><line x1="120.66666666666666" y1="0" x2="120.66666666666666" y2="377" fill="rgb(0, 0, 0)" stroke="rgb(66, 66, 66)" stroke-width="1px" opacity="0.25"></line><line x1="241.33333333333331" y1="0" x2="241.33333333333331" y2="377" fill="rgb(0, 0, 0)" stroke="rgb(66, 66, 66)" stroke-width="1px" opacity="0.25"></line><line x1="362" y1="0" x2="362" y2="377" fill="rgb(0, 0, 0)" stroke="rgb(66, 66, 66)" stroke-width="1px" opacity="0.25"></line><line x1="482.66666666666663" y1="0" x2="482.66666666666663" y2="377" fill="rgb(0, 0, 0)" stroke="rgb(66, 66, 66)" stroke-width="1px" opacity="0.25"></line><line x1="603.3333333333334" y1="0" x2="603.3333333333334" y2="377" fill="rgb(0, 0, 0)" stroke="rgb(66, 66, 66)" stroke-width="1px" opacity="0.25"></line><line x1="724" y1="0" x2="724" y2="377" fill="rgb(0, 0, 0)" stroke="rgb(66, 66, 66)" stroke-width="1px" opacity="0.25"></line><line x1="844.6666666666667" y1="0" x2="844.6666666666667" y2="377" fill="rgb(0, 0, 0)" stroke="rgb(66, 66, 66)" stroke-width="1px" opacity="0.25"></line><line x1="965.3333333333333" y1="0" x2="965.3333333333333" y2="377" fill="rgb(0, 0, 0)" stroke="rgb(66, 66, 66)" stroke-width="1px" opacity="0.25"></line><line x1="1086" y1="0" x2="1086" y2="377" fill="rgb(0, 0, 0)" stroke="rgb(66, 66, 66)" stroke-width="1px" opacity="0.25"></line><line x1="1206.6666666666667" y1="0" x2="1206.6666666666667" y2="377" fill="rgb(0, 0, 0)" stroke="rgb(66, 66, 66)" stroke-width="1px" opacity="0.25"></line><line x1="1327.3333333333333" y1="0" x2="1327.3333333333333" y2="377" fill="rgb(0, 0, 0)" stroke="rgb(66, 66, 66)" stroke-width="1px" opacity="0.25"></line><line x1="1448" y1="0" x2="1448" y2="377" fill="rgb(0, 0, 0)" stroke="rgb(66, 66, 66)" stroke-width="1px" opacity="0.25"></line></g><g><line x1="0" y1="377" x2="1448" y2="377" fill="rgb(0, 0, 0)" stroke="rgb(66, 66, 66)" stroke-width="1px" opacity="0.25"></line><line x1="0" y1="339.3" x2="1448" y2="339.3" fill="rgb(0, 0, 0)" stroke="rgb(66, 66, 66)" stroke-width="1px" opacity="0.25"></line><line x1="0" y1="301.6" x2="1448" y2="301.6" fill="rgb(0, 0, 0)" stroke="rgb(66, 66, 66)" stroke-width="1px" opacity="0.25"></line><line x1="0" y1="263.9" x2="1448" y2="263.9" fill="rgb(0, 0, 0)" stroke="rgb(66, 66, 66)" stroke-width="1px" opacity="0.25"></line><line x1="0" y1="226.2" x2="1448" y2="226.2" fill="rgb(0, 0, 0)" stroke="rgb(66, 66, 66)" stroke-width="1px" opacity="0.25"></line><line x1="0" y1="188.5" x2="1448" y2="188.5" fill="rgb(0, 0, 0)" stroke="rgb(66, 66, 66)" stroke-width="1px" opacity="0.25"></line><line x1="0" y1="150.8" x2="1448" y2="150.8" fill="rgb(0, 0, 0)" stroke="rgb(66, 66, 66)" stroke-width="1px" opacity="0.25"></line><line x1="0" y1="113.10000000000002" x2="1448" y2="113.10000000000002" fill="rgb(0, 0, 0)" stroke="rgb(66, 66, 66)" stroke-width="1px" opacity="0.25"></line><line x1="0" y1="75.40000000000002" x2="1448" y2="75.40000000000002" fill="rgb(0, 0, 0)" stroke="rgb(66, 66, 66)" stroke-width="1px" opacity="0.25"></line><line x1="0" y1="37.69999999999999" x2="1448" y2="37.69999999999999" fill="rgb(0, 0, 0)" stroke="rgb(66, 66, 66)" stroke-width="1px" opacity="0.25"></line><line x1="0" y1="0" x2="1448" y2="0" fill="rgb(0, 0, 0)" stroke="rgb(66, 66, 66)" stroke-width="1px" opacity="0.25"></line></g></g></g><g><g><line x1="0" y1="339.3" x2="1448" y2="339.3" fill="rgb(0, 0, 0)" stroke="rgb(153, 153, 153)" stroke-width="1.5px"></line></g></g><g><g><line x1="120.66666666666666" y1="0" x2="120.66666666666666" y2="377" fill="rgb(0, 0, 0)" stroke="rgb(153, 153, 153)" stroke-width="1.5px"></line></g></g><g><g><g><g><g><path stroke="rgb(255, 112, 67)" stroke-width="2px" d="M166.52,-21.744412736029112L167.72666666666666,3.066277416750646L168.93333333333334,6.67288513581329L170.14,-1.6497768659024354L172.55333333333334,7.8733457347718065L173.76,2.9571830674895736L174.96666666666667,-5.729159587934144L176.17333333333335,19.85052967672158L177.38,15.59118902493006L178.58666666666667,14.404586881326399L179.79333333333332,17.340326095958982L181,5.559075699210608L182.20666666666665,-6.085344423340711L183.41333333333336,22.13273921200682L184.62,48.71240006581L185.82666666666665,44.42924877340539L187.03333333333336,53.53156096660725L188.24,45.12410198522312L189.44666666666666,31.500612962665038L190.6533333333333,63.59313360479813L191.86,80.61748728053819L194.2733333333333,71.0385712152522L195.48000000000002,60.111217933045396L196.68666666666667,38.82748843976476L197.89333333333332,42.904244094781L200.30666666666667,59.80533899169729L201.51333333333332,62.243484213957665L202.72000000000003,83.28483463943589L203.92666666666668,73.26751010907039L205.13333333333333,80.30846848781319L206.33999999999997,72.60557953056934L207.54666666666668,80.3506801529959L208.75333333333333,92.57458569551918L209.95999999999998,79.91279366699109L211.16666666666669,75.41064254216698L212.37333333333333,109.09482370002478L213.57999999999998,91.04906400074606L214.7866666666667,102.43115918177388L215.99333333333334,116.81678592883362L217.2,123.46408485724218L218.4066666666667,116.48166052433069L219.61333333333334,127.02386483628877L220.82,128.6891346232851L222.02666666666664,107.53531836132764L223.23333333333335,95.75625704443792L224.44,103.32598432252607L225.64666666666665,117.34536676138522L226.85333333333335,121.6618361695402L228.06,123.69270347021778L229.26666666666665,106.61288569964624L230.47333333333336,118.09269693969281L232.88666666666666,129.53900486635322L234.0933333333333,139.6925684905479L235.3,119.58642252781564L236.50666666666666,128.13678550540553L237.7133333333333,117.96987637888878L238.92000000000002,121.41433928138908L240.12666666666667,132.69040375308333L241.33333333333331,127.55804236266698L242.54000000000002,142.95814695795588L243.74666666666667,145.6937008025659L244.95333333333332,146.48977480187494L246.16000000000003,162.1627841654687L247.36666666666667,166.8953194846671L248.57333333333332,173.50325063168773L249.77999999999997,168.9947035342441L250.98666666666668,166.66557720601477L252.19333333333333,168.59031917154738L253.39999999999998,155.46366150796385L254.60666666666668,147.82569720041732L255.81333333333333,148.71530528600204L257.02,151.9730662401628L259.43333333333334,162.52025946474743L260.64,176.65009862003726L261.8466666666667,180.49335047613386L263.05333333333334,170.14794041044L264.26,171.76476494387674L265.46666666666664,171.7922077603095L266.67333333333335,189.47500711363278L267.88,156.30819550086093L269.08666666666664,174.50870716648717L270.29333333333335,175.48076009319675L271.5,155.1044998572257L272.70666666666665,156.54857378756924L273.91333333333336,167.4320962474103L275.12,151.99894034656018L276.32666666666665,149.83456420297705L277.53333333333336,152.3563372647481L278.74,168.04919143174394L279.94666666666666,176.4824424913782L281.1533333333333,192.7403826267277L282.36,186.0169421118948L283.56666666666666,193.40366678252536L284.7733333333333,189.1048966766281L285.98,195.95729949718017L287.18666666666667,187.9872163644153L288.3933333333333,192.86891135160434L289.6,181.09235820641703L290.8066666666667,185.6492920677101L292.0133333333333,203.39171522141905L293.22,177.747207811364L294.4266666666667,163.70197420292405L295.6333333333333,182.4278639446098L296.84,194.2179224378108L298.0466666666667,190.94059257544512L299.25333333333333,192.1917741896953L300.46,201.42759068740878L302.87333333333333,204.9939513989298L305.2866666666667,196.5084729855066L306.49333333333334,201.37125099806815L307.7,194.9350563425352L308.9066666666667,196.5706779634076L310.11333333333334,213.30057880849347L311.32,218.4785334752244L312.52666666666664,207.8107391003515L313.73333333333335,209.38493560098087L314.94,211.17024907793092L316.14666666666665,213.35295826509886L317.35333333333335,213.98582614371352L318.56,218.76269403761134L319.76666666666665,191.9043530396551L320.97333333333336,199.3701712543923L322.18,215.06168254465808L323.38666666666666,230.18544454843374L324.5933333333333,228.58046988648516L325.8,223.72455909968818L327.00666666666666,224.89453273011088L328.2133333333333,231.07594148035554L329.42,241.50342358300512L330.62666666666667,241.83928238361733L331.8333333333333,236.67473454600366L333.04,240.50126983240716L334.24666666666667,244.70224677750753L335.4533333333333,234.0553050305205L336.66,222.3085507026766L337.8666666666667,213.66534820744124L339.0733333333333,213.07867311685519L340.28,219.89801143675587L341.4866666666667,216.12784209412064L342.6933333333333,229.35957361317708L343.9,223.5607538953843L345.1066666666667,220.15374212595358L346.31333333333333,230.32484069664795L348.7266666666667,248.47715411424352L349.93333333333334,246.41561183357064L351.14,243.49787730111973L352.3466666666667,233.3691132505792L353.55333333333334,242.8506357348L354.76,249.8644881842157L355.96666666666664,254.85298658118373L357.17333333333335,250.61398978177144L358.38,251.1776635905709L359.58666666666664,251.60498766783513L360.79333333333335,254.64852383663438L362,233.31456207114567L363.2066666666667,228.75002228068178L365.62,233.47432371405876L366.8266666666667,244.0087377526052L368.0333333333333,249.589604265552L369.24,246.07686868850064L370.4466666666667,242.44224532093807L371.6533333333333,234.2755829503906L372.86,240.3866234559281L374.0666666666667,237.59801539531134L375.2733333333333,241.73604973525275L376.48,245.80302295428794L377.6866666666666,254.51578861798217L378.8933333333333,257.6248305709682L380.1,266.69372134158147L381.3066666666666,272.60386276214797L382.5133333333333,264.3553948114483L383.72,243.5801490324836L384.9266666666666,263.48507061291343L386.1333333333333,263.49947535329227L387.34000000000003,254.63833270390728L388.5466666666666,262.50557882261216L389.75333333333333,260.26974921746216L390.96000000000004,258.6895987184236L392.16666666666663,254.26206141182124L393.37333333333333,257.85685649912557L394.58000000000004,253.50068792462943L395.78666666666663,263.27913205600146L396.99333333333334,267.96458829031207L398.20000000000005,265.80221362582336L399.40666666666664,260.79693359059985L400.61333333333334,261.1418136902028L401.82000000000005,246.92000474139297L403.02666666666664,250.3023861158147L404.23333333333335,255.69005363751972L405.44000000000005,269.3505102263065L406.64666666666665,275.5618306926591L407.85333333333335,281.2074129910292L409.05999999999995,275.4692102641476L410.26666666666665,268.098442780412L412.67999999999995,270.52857971753883L413.88666666666666,265.82409118274575L415.09333333333336,279.0841509959681L416.29999999999995,281.4609115172376L417.50666666666666,258.0733459454149L418.71333333333337,270.8831868458611L419.91999999999996,266.83257206134925L421.12666666666667,272.052773303109L422.33333333333337,273.5665743519769L423.53999999999996,276.3563454681578L424.74666666666667,255.36855957829616L425.9533333333334,264.64300871565143L427.15999999999997,277.51172826811194L428.3666666666667,270.7867405910761L429.5733333333334,271.439004118411L431.9866666666667,274.6867886407186L433.1933333333334,272.988489159525L434.4,282.20802755986483L435.6066666666667,288.4582457782914L436.8133333333334,283.45864227188173L438.02,290.42616825981463L439.2266666666667,281.14601226975634L440.4333333333333,280.3555215151913L441.64,281.76746116708557L444.0533333333333,288.9869338949373L445.26,289.63311302661003L446.4666666666667,284.7992703211254L447.6733333333333,267.96788959574377L448.88,268.1415351037483L451.2933333333333,270.23521952177884L452.5,273.488165179168L453.7066666666667,285.48645323888945L454.9133333333333,288.80761067614844L456.12,290.0011437400931L457.3266666666667,287.19112418203076L458.5333333333333,299.2250195953758L459.74,296.24978467425774L460.9466666666667,292.50551834583916L462.1533333333333,279.3881348614731L463.36,280.92059784918064L464.5666666666667,288.63303179436343L465.7733333333333,283.93728219922434L466.98,296.7523894214991L468.1866666666666,287.8039329245307L469.3933333333333,294.0671569564711L470.6,286.51902896039314L471.8066666666666,291.0437623952187L473.0133333333333,302.24486667748437L474.22,306.12057257614225L475.4266666666666,297.7403215594392L476.6333333333333,289.67121758742934L477.84000000000003,282.85420581033117L479.0466666666666,281.36515514570647L480.25333333333333,273.0747393174062L481.46000000000004,280.6205846919471L482.66666666666663,284.3392994686278L483.87333333333333,289.90748029972985L485.08000000000004,287.9505205227487L486.28666666666663,299.42486213705257L487.49333333333334,299.36429273045843L488.70000000000005,296.81308088992114L489.90666666666664,296.9280532121305L491.11333333333334,300.572790738323L492.32000000000005,294.78629264734906L493.52666666666664,300.8452814084454L494.73333333333335,295.63147480977557L497.14666666666665,296.5146938019572L498.35333333333335,295.2267814322459L499.55999999999995,287.7111510017006L500.76666666666665,302.85587775102186L501.97333333333336,302.1200127964671L503.17999999999995,308.19002827915284L504.38666666666666,310.9849018133446L505.59333333333336,303.4438429413297L506.79999999999995,294.0086846088206L508.00666666666666,292.891377708604L509.21333333333337,295.0255435367168L510.41999999999996,290.2781654643858L511.62666666666667,291.5768885921147L512.8333333333334,286.31837228719627L514.04,288.2103369890704L515.2466666666667,289.4332581328782L516.4533333333334,297.643655770268L517.66,305.1148340524709L518.8666666666667,308.3842029179022L520.0733333333334,308.3255441680482L521.28,306.927249790128L522.4866666666667,301.54099644893165L523.6933333333334,305.0990524165258L524.9,306.12466142728476L526.1066666666667,297.37679498406976L527.3133333333334,302.38216332920035L528.52,303.2035830708005L529.7266666666667,295.0630707926546L532.14,301.301142669141L533.3466666666667,311.15483510400037L534.5533333333333,312.1953832006763L535.76,308.1194014260954L536.9666666666667,310.15171675561584L538.1733333333333,314.07474786864947L539.38,317.8807995008065L540.5866666666667,300.7625984136244L541.7933333333333,307.0012759613383L543,310.59607365533043L544.2066666666667,309.17041303518016L545.4133333333333,315.343476247803L546.62,309.4564538383577L547.8266666666667,308.0756474497374L549.0333333333333,300.0217686165843L550.24,308.5482301690861L551.4466666666667,309.1714207529237L552.6533333333333,313.5326952647692L553.86,317.1384773124174L555.0666666666667,317.0380420380185L556.2733333333333,318.04144615163506L557.48,299.1820557262307L558.6866666666666,306.81599812005794L559.8933333333333,307.4211995035102L561.1,311.7855720370823L562.3066666666666,306.30939047156653L563.5133333333333,310.52209577899504L564.72,309.42917853976087L565.9266666666666,309.14326409748077L567.1333333333333,315.22762989819574L570.7533333333333,317.3623073355587L571.96,315.4527729914326L573.1666666666666,313.3696665487134L574.3733333333333,312.39844472357294L575.58,317.3833638957063L576.7866666666666,315.7975927502465L577.9933333333333,312.88987647477103L579.2,312.6442130725581L580.4066666666666,318.52274268364897L581.6133333333333,310.9205270093441L582.82,310.5907788039303L584.0266666666666,311.2045682746801L585.2333333333333,315.86988665453396L586.44,311.7920318603027L587.6466666666666,312.8494053888028L588.8533333333334,307.50287802384526L591.2666666666667,305.39848417083164L592.4733333333334,310.9542366340145L593.68,314.91425912346745L594.8866666666667,303.3984362898249L596.0933333333334,308.5282748334395L597.3,314.15438156502165L598.5066666666667,318.01869553552103L599.7133333333334,312.39657000855226L600.92,313.62215010437734L602.1266666666667,318.69170925058944L603.3333333333334,312.84905144118085L604.54,315.49247128959183L605.7466666666667,320.31618052509833L606.9533333333334,320.05670639269005L608.16,316.9022824799564L609.3666666666667,320.8674067813484L610.5733333333334,312.3538771437602L611.78,307.3235650293229L612.9866666666667,311.2450883240818L614.1933333333334,313.47008472659104L615.4,320.9480467985744L616.6066666666667,324.65150185499635L617.8133333333334,322.46556301727327L619.02,306.2659592748548L620.2266666666667,314.3052581960479L621.4333333333333,312.9463632067752L622.64,312.2900284159608L623.8466666666667,315.8679923011915L625.0533333333333,318.0472748630676L626.26,317.9488897978326L627.4666666666667,317.91479533487916L628.6733333333333,312.49088050588585L629.88,314.2072368807472L631.0866666666667,318.1636797333882L632.2933333333333,316.8143622109369L633.5,321.21281375059937L634.7066666666667,320.7105504841772L635.9133333333333,316.915135466526L637.12,312.6861798646867L638.3266666666667,311.0850249739182L639.5333333333333,309.1082304615791L640.74,313.4502082731733L641.9466666666667,305.22311288633404L643.1533333333333,313.16004388313564L644.36,308.54103712726277L645.5666666666667,309.0572388302603L646.7733333333333,302.80633310981506L647.98,309.58379316453886L649.1866666666666,318.1135346096739L650.3933333333333,316.29021082949544L651.6,318.38296033043804L652.8066666666666,317.7783366161534L654.0133333333333,320.93842945176056L655.22,318.22029724942263L656.4266666666666,319.3783635060585L657.6333333333333,320.4185340273736L658.84,322.06843750407444L660.0466666666666,323.65527096945135L661.2533333333333,318.75999925886447L663.6666666666666,319.7461463186434L664.8733333333333,310.51105844338485L666.08,311.0968318734154L667.2866666666666,317.8728678061714L668.4933333333333,320.29364664430324L669.7,324.23075369238796L670.9066666666666,323.88272881770104L672.1133333333333,322.93932614305L674.5266666666666,321.75740745233526L675.7333333333333,323.4335151122035L676.94,318.4904201105846L678.1466666666666,321.82530599955396L679.3533333333334,317.00738192393584L680.56,316.0608725905073L681.7666666666667,313.74796393690417L682.9733333333334,312.7645902507181L684.18,322.3019421018019L685.3866666666667,326.642664007059L686.5933333333334,321.7978347383209L687.8,321.3959999270599L689.0066666666667,319.14385059966804L690.2133333333334,321.7293345597039L692.6266666666667,320.64857153812943L693.8333333333334,319.8931840191477L695.04,325.9894114513066L697.4533333333334,329.787878140367L698.66,327.4615632737022L699.8666666666667,320.4958845415319L701.0733333333334,316.88058019331726L702.28,313.5164463362195L703.4866666666667,315.314187420076L704.6933333333334,313.7292176602279L705.9,316.5248927556273L707.1066666666667,322.2931100198804L708.3133333333334,322.4909299247967L709.52,324.1605320813362L710.7266666666667,320.1795712001386L711.9333333333333,325.5100966904916L713.14,325.96933675017107L714.3466666666667,321.5022764528164L716.76,326.2663992438834L717.9666666666667,327.63245318616157L719.1733333333333,325.80711978366804L720.38,327.7505091601064L721.5866666666667,328.63022326415484L722.7933333333333,321.35716134420454L724,319.708349891373L725.2066666666667,319.30296450398475L726.4133333333334,322.1592386289961L727.6199999999999,326.2723293554501L728.8266666666666,320.7156111014912L730.0333333333333,316.4347520192283L732.4466666666667,316.45695577650173L733.6533333333334,308.22187332087105L734.8599999999999,314.9100814579329L736.0666666666666,314.1705451243163L737.2733333333333,320.62933884579184L738.48,322.0697560740605L739.6866666666667,317.01771621424524L740.8933333333334,322.58793783988693L742.0999999999999,326.29180397245966L744.5133333333333,328.24418376820495L745.72,325.57237033329733L746.9266666666667,327.7680715492805L748.1333333333334,319.01105286129945L749.3399999999999,317.9475942531147L750.5466666666666,318.7957725107025L751.7533333333333,323.5791425421447L752.96,327.295778147704L754.1666666666667,329.54016086270013L756.5799999999999,331.7765747078335L757.7866666666666,323.7842053763911L758.9933333333333,326.0257303595749L760.2,320.57625133694455L761.4066666666668,325.50279164672634L762.6133333333332,328.28240959308L763.8199999999999,323.6835660705653L765.0266666666666,328.8909583612717L766.2333333333333,320.5428606864474L767.44,323.38701692471875L768.6466666666668,321.291372938156L769.8533333333332,316.1943947972058L771.06,320.0064444748282L772.2666666666667,325.75066367962773L773.4733333333334,327.8039772756625L774.6800000000001,325.80118663565685L775.8866666666668,321.6742837259554L777.0933333333332,317.0713866799702L778.3,322.35056932089503L779.5066666666667,325.32741962681877L780.7133333333334,326.6964433976153L781.9200000000001,329.21373275417926L783.1266666666668,329.0040921357205L784.3333333333333,325.9561341647464L785.54,321.85660123909463L786.7466666666667,325.49663576057526L787.9533333333334,324.4674863041697L789.1600000000001,329.4667694135015L790.3666666666666,326.4270862122479L791.5733333333333,321.45278715491906L792.78,323.0093779540099L793.9866666666667,324.91191384843216L795.1933333333334,327.65509876967207L796.4000000000001,326.1016867149516L797.6066666666666,329.26107244915625L798.8133333333333,328.8016485016159L800.02,324.2805034152038L801.2266666666667,321.48360535063546L802.4333333333334,323.9482439168287L803.6400000000001,320.5977446811194L804.8466666666666,325.58389822523566L806.0533333333333,329.6996114810155L807.26,326.90273666559733L808.4666666666667,318.610795169348L809.6733333333334,322.554857756212L810.8800000000001,323.8537383422343L812.0866666666666,314.23444083124923L813.2933333333333,320.07303760344104L814.5,322.8724453648586L815.7066666666667,326.61195210937615L816.9133333333334,329.5193208092389L818.1199999999999,332.3925925169624L819.3266666666666,328.4675033074163L820.5333333333333,331.12067283475653L821.74,330.67473764708194L824.1533333333334,331.6223836597237L826.5666666666666,333.2330289003362L827.7733333333333,333.02456239385066L828.98,322.8429555101553L830.1866666666667,318.853741361103L831.3933333333334,322.9716386238644L832.5999999999999,324.43457982450184L833.8066666666666,321.8016376358834L835.0133333333333,321.44442295477194L836.22,325.83161348936204L837.4266666666667,324.566550886853L838.6333333333334,324.1113913674494L839.8399999999999,326.6004392878318L841.0466666666666,328.7259427492979L842.2533333333333,329.02035944194574L843.46,331.17512938778685L844.6666666666667,329.19484186381743L845.8733333333332,328.8545236135164L847.0799999999999,325.5272996583366L848.2866666666666,324.881295857059L849.4933333333333,326.77206291137753L850.7,329.8311435316719L851.9066666666668,325.2098275828193L853.1133333333332,329.8621892353344L854.3199999999999,317.56139289977835L855.5266666666666,325.4958690596681L856.7333333333333,326.5712339505888L857.94,328.90463504912475L859.1466666666668,324.37217272026555L860.3533333333332,324.3820962512684L861.56,325.1449472799416L862.7666666666667,325.65862067726346L863.9733333333334,327.8479101636236L865.1800000000001,331.88524935011424L866.3866666666668,331.7085033971927L867.5933333333332,325.6999993079222L868.8,324.9564224808405L870.0066666666667,325.9626273214215L871.2133333333334,324.506266799235L872.4200000000001,326.7743489779017L873.6266666666668,330.0213055693049L874.8333333333333,329.9519107157254L876.04,332.62033194787136L877.2466666666667,334.73365204473555L878.4533333333334,319.68154304707184L879.6600000000001,323.58631010537823L880.8666666666666,327.5582022198169L882.0733333333333,329.0380979477244L883.28,330.9998000912444L884.4866666666667,328.9497395826922L885.6933333333334,322.4781000163285L886.9000000000001,325.8806612374561L888.1066666666666,328.1451963180111L889.3133333333333,322.99817395590577L890.52,327.33240344909035L891.7266666666667,320.5777627437544L892.9333333333334,323.0780351611514L894.1400000000001,322.14502661362525L895.3466666666666,327.719359126003L896.5533333333333,330.26071960005845L897.76,327.52774878128577L898.9666666666667,323.15631377240544L900.1733333333334,323.859186109844L901.3800000000001,324.4123308697004L903.7933333333333,328.031223929072L905,326.7391964811948L906.2066666666667,330.41305853024824L907.4133333333334,331.7735082636517L908.6199999999999,329.0533270687009L909.8266666666666,327.65799251616863L911.0333333333333,330.683492097979L912.24,332.49222176229966L913.4466666666667,330.0551386812688L914.6533333333334,332.8009938567869L915.8599999999999,332.1746772506828L917.0666666666666,334.51083976760106L918.2733333333333,335.0981000214642L919.48,336.10229296094633L920.6866666666667,335.74611045528326L921.8933333333334,335.02818061744495L923.0999999999999,330.6241726251562L924.3066666666666,331.57543271509525L925.5133333333333,330.6293726059956L926.72,324.8360755764343L929.1333333333334,330.1465857050805L930.3399999999999,329.50968627211387L931.5466666666666,331.46476132923027L932.7533333333333,331.49494404392635L933.96,332.7711334064436L935.1666666666667,330.9577042895455L936.3733333333332,332.4055298832297L937.5799999999999,332.9516057219201L938.7866666666666,333.75244128278456L939.9933333333333,320.3860378013346L941.2,326.63128198072576L942.4066666666668,329.86418933993735L943.6133333333332,330.64267067626804L944.8199999999999,333.22391377108215L946.0266666666666,333.251031732064L947.2333333333333,330.9608217328796L948.44,333.62108450576716L949.6466666666668,333.0843469628397L950.8533333333332,331.34237880177517L952.06,332.94203713345365L953.2666666666667,330.1019059658517L954.4733333333334,330.53620735022247L955.6800000000001,322.2955088699628L956.8866666666668,317.0267598035794L958.0933333333332,323.6117701078422L959.3,324.16582140862744L960.5066666666667,320.4253748908031L961.7133333333334,313.2936369195216L962.9200000000001,318.5255354127069L964.1266666666668,323.40738299717185L965.3333333333333,328.6748340256046L966.54,329.5385328626353L968.9533333333334,332.5630599459689L970.1600000000001,317.6436079454828L971.3666666666666,325.3900335014557L972.5733333333333,329.64529421408145L973.78,326.5475842292856L974.9866666666667,330.93304364473374L976.1933333333334,329.7750507483825L977.4000000000001,325.567134440538L978.6066666666666,323.9422024325113L979.8133333333333,325.4096940431345L981.02,327.2782974000781L982.2266666666667,326.08043085938743L983.4333333333334,328.2736372194055L984.6400000000001,327.75039627023716L985.8466666666666,329.04036049510944L987.0533333333333,331.829869301861L988.26,334.1492751181098L989.4666666666667,332.49360203429893L990.6733333333334,328.44628442010185L991.8800000000001,326.36531329382L993.0866666666666,320.69731473880137L994.2933333333333,322.1512218961545L995.5,307.6453101557152L996.7066666666667,314.65572729060983L997.9133333333334,321.79775733232464L999.1199999999999,328.0536041747329L1000.3266666666666,331.0865152253686L1001.5333333333333,322.7549959417569L1002.74,319.71955338218135L1003.9466666666667,326.3393768890847L1005.1533333333334,326.85506779740155L1006.3599999999999,330.940708677783L1007.5666666666666,333.8502467214141L1008.7733333333333,335.07019960617714L1009.98,328.8499344121557L1011.1866666666667,331.79960234283755L1012.3933333333334,329.74851575058307L1013.5999999999999,326.05006293810374L1014.8066666666666,330.29045868661683L1016.0133333333333,332.4211722113739L1017.22,333.57333029392663L1018.4266666666667,333.66993619819465L1019.6333333333334,335.19426061336685L1020.8399999999999,334.434546804127L1022.0466666666666,331.15943856102047L1023.2533333333333,331.4873089016188L1025.6666666666667,331.6746183054572L1026.8733333333332,332.3876617394045L1028.08,334.6038513974081L1029.2866666666666,336.0764125717867L1030.4933333333333,335.68092099856966L1031.7,335.99332331054137L1032.9066666666668,332.3575056083961L1034.1133333333332,334.8392249910251L1035.32,335.1086278792897L1036.5266666666666,333.4134953458118L1037.7333333333333,329.9713873004322L1040.1466666666668,333.2981119776572L1041.3533333333332,334.8273550838861L1042.56,334.99918361660144L1043.7666666666667,335.65913007453116L1044.9733333333334,335.20452196148057L1046.18,334.6456187438787L1047.3866666666668,334.6543618473006L1048.5933333333332,327.517456066763L1049.8,326.3004463891122L1051.0066666666667,330.1702003013303L1052.2133333333334,321.8099485755688L1053.42,319.0191463852361L1054.6266666666668,322.3884239670298L1057.04,328.7857053461357L1058.2466666666667,332.0936049243173L1059.4533333333334,328.07165538313154L1060.66,330.70730164195396L1061.8666666666666,329.6807234547752L1063.0733333333333,331.2560307752918L1064.28,330.51448266084975L1065.4866666666667,333.584065103425L1066.6933333333334,334.3971182336768L1069.1066666666666,334.7527942352212L1070.3133333333333,330.24188994692065L1071.52,327.6151007117408L1072.7266666666667,328.6233348531471L1073.9333333333334,331.08414037356954L1075.14,331.8884530754696L1076.3466666666666,334.6655314644388L1077.5533333333333,333.96076150165266L1078.76,333.9294632900582L1079.9666666666667,331.6756214662687L1081.1733333333334,332.6089391896454L1082.38,332.8695536961751L1083.5866666666666,316.2360979575274L1084.7933333333333,321.5005098538612L1086,328.39010364085334L1087.2066666666667,327.7439434258336L1089.62,327.8083128346916L1090.8266666666666,331.07080938906466L1092.0333333333333,327.10745088720915L1093.24,329.8901592126614L1094.4466666666667,333.3808584179469L1095.6533333333334,334.4253182928108L1096.86,334.95812350491246L1098.0666666666666,335.69055587048564L1099.2733333333333,330.5084309142544L1100.48,331.221967225922L1101.6866666666667,329.12788457879594L1102.8933333333334,330.9782886298547L1104.1,325.8099279559881L1105.3066666666666,329.7797894102919L1106.5133333333333,328.8894795048289L1107.72,331.17114697996095L1108.9266666666667,333.6201201231603L1110.1333333333334,335.1294124181985L1111.34,335.913270588274L1112.5466666666666,330.06475629362774L1113.7533333333333,332.9918049117375L1114.96,328.8442142805725L1116.1666666666667,331.0043797587615L1117.3733333333332,333.95619244089045L1118.58,335.583017597558L1119.7866666666666,327.8506175052893L1120.9933333333333,325.4641930917962L1122.2,327.832712203566L1123.4066666666668,331.59631540949863L1124.6133333333332,334.4624301258611L1125.82,334.0440837954812L1127.0266666666666,335.26032812396187L1128.2333333333333,333.3522526089817L1129.44,331.10182302427114L1130.6466666666668,333.44066576265135L1131.8533333333332,335.6640439463902L1133.06,334.8059399494975L1134.2666666666667,325.2352311783701L1135.4733333333334,329.0802106417667L1137.8866666666668,329.65641249656386L1139.0933333333332,332.2286995374543L1140.3,332.6964488480021L1141.5066666666667,323.0241195633131L1143.92,314.96005555356254L1145.1266666666668,319.75260161498016L1146.3333333333333,327.24842637513626L1147.54,322.5485857423219L1148.7466666666667,328.6571275549276L1151.16,330.003597667196L1152.3666666666666,332.1459373883179L1153.5733333333333,326.8675632087452L1154.78,328.56886042151234L1155.9866666666667,332.35393604630383L1157.1933333333334,334.8664931818774L1158.4,334.26965998917404L1159.6066666666666,335.7927013477882L1160.8133333333333,335.01575443252625L1162.02,336.0289264475462L1165.64,335.9571175843571L1166.8466666666666,328.32730324954355L1168.0533333333333,332.3732231753688L1169.26,330.52174887091644L1170.4666666666667,333.6948958121023L1171.6733333333334,334.9332353801895L1172.88,332.9261975006085L1174.0866666666666,333.8647109921021L1175.2933333333333,332.2092321723844L1176.5,331.87713969529545L1178.9133333333334,333.8776335147001L1180.12,334.92563981712476L1181.3266666666666,334.96800071992345L1182.5333333333333,334.09153257875363L1183.74,330.57201653730107L1184.9466666666667,326.9447131691052L1186.1533333333334,331.44721492202126L1187.36,334.2278026265415L1188.5666666666666,331.8859978865095L1189.7733333333333,331.7154092659359L1190.98,331.6724156388524L1192.1866666666667,328.33095591478843L1193.3933333333334,332.61565666314686L1194.6,333.4268864087267L1195.8066666666666,329.751656378031L1198.22,333.3202186447577L1199.4266666666667,323.59420117391323L1200.6333333333334,327.64295970970795L1201.84,330.7627731399203L1203.0466666666666,331.43277316728023L1204.2533333333333,327.2955865734147L1205.46,324.32252983113096L1206.6666666666667,327.183069198936L1207.8733333333332,328.2889556700645L1209.08,332.6075835504505L1210.2866666666666,328.1090501918419L1212.7,332.4097433189559L1213.9066666666668,332.3817636889224L1215.1133333333332,333.975744173758L1216.32,334.0593348128842L1217.5266666666666,334.15472701285756L1219.94,333.5266839953928L1221.1466666666668,334.63133372143915L1223.56,331.68060699090967L1224.7666666666667,334.46323790446655L1225.9733333333334,334.10675330867315L1227.18,335.88959171180954L1228.3866666666668,334.62832241433875L1229.5933333333332,328.557286799717L1230.8,322.99574114845285L1232.0066666666667,324.64618573436786L1233.2133333333334,330.1098911297673L1234.42,332.5070159459027L1235.6266666666668,334.55460858066607L1236.8333333333333,336.0263904031238L1238.04,336.6652858937455L1239.2466666666667,337.3678983259006L1240.4533333333334,336.7100413480582L1241.66,333.7988207986463L1242.8666666666666,334.81310237395815L1244.0733333333333,327.4779802897457L1245.28,330.2274410487791L1246.4866666666667,332.25436151625695L1247.6933333333334,333.6794654126583L1248.9,335.2143337091427L1250.1066666666666,332.3588974583519L1251.3133333333333,329.6170633139236L1252.52,323.62979589831974L1254.9333333333334,328.6268049609342L1256.14,322.4601148874568L1257.3466666666666,316.94129869228647L1258.5533333333333,325.3592624934862L1259.76,325.3811670224279L1260.9666666666667,328.10659679176865L1262.1733333333334,331.7350462718455L1263.38,334.58090528899197L1264.5866666666666,335.58990419788665L1265.7933333333333,330.47619825949374L1267,330.97185798764286L1268.2066666666667,334.16255527182705L1269.4133333333334,336.0212283915593L1270.62,336.1112852323838L1271.8266666666666,336.97286215426624L1273.0333333333333,337.4354037824026L1274.24,334.5163854786904L1275.4466666666667,335.48217292590596L1276.6533333333334,332.71075462796483L1279.0666666666666,334.0769794282209L1280.2733333333333,334.11053634461115L1281.48,334.05285555706234L1282.6866666666667,329.8407882945884L1283.8933333333334,327.2501264865487L1285.1,331.862301016523L1286.3066666666666,331.5492889190755L1288.72,334.52465639517425L1289.9266666666667,334.54114768925734L1291.1333333333334,335.44176519515923L1292.34,332.46346754239687L1293.5466666666666,334.60408881165347L1294.7533333333333,332.12921997641183L1295.96,334.4995091397146L1298.3733333333332,332.9958465536582L1299.58,334.5425440649031L1300.7866666666666,335.258678075289L1301.9933333333333,334.42750850088316L1303.2,329.654225706857L1304.4066666666668,332.32925600926666L1305.6133333333332,334.8669099663401L1306.82,328.4236511438909L1308.0266666666666,322.733160797943L1310.44,327.89498891491553L1311.6466666666668,331.7011442874155L1312.8533333333332,333.89146087813566L1314.06,334.44063910028746L1315.2666666666667,335.27853381656206L1316.4733333333334,335.5187586056298L1317.68,332.9980360039834L1318.8866666666668,332.39970753125925L1320.0933333333332,334.2525247580265L1321.3,336.04438150083007L1322.5066666666667,334.2849533891975L1323.7133333333334,335.594347410652L1324.92,332.5889286266285L1326.1266666666668,333.9770214907239L1327.3333333333333,334.9509769456482L1328.54,336.1816678592948L1329.7466666666667,334.6556022268169L1330.9533333333334,334.4576344651957L1332.16,335.7485341644946L1333.3666666666666,335.9441278360285L1334.5733333333333,334.8056480297147L1335.78,335.88452083248336L1336.9866666666667,333.3373618197646L1339.4,333.41731884135044L1340.6066666666666,335.56550798436695L1341.8133333333333,333.3402118314546L1343.02,327.96168535645256L1344.2266666666667,330.4166587085751L1345.4333333333334,329.64626093648235L1346.64,330.53255264098857L1347.8466666666666,333.5669920609767L1349.0533333333333,334.38114417523894L1351.4666666666667,335.63208808585705L1352.6733333333334,336.1398750465569L1353.88,330.9218089798961L1355.0866666666666,333.59731401833886L1356.2933333333333,333.7154373241692L1357.5,334.45728000302495L1358.7066666666667,333.85575471743573L1359.9133333333334,335.07874406780826L1361.12,332.4335957213105L1362.3266666666666,334.7449307829953L1363.5333333333333,329.48015586947304L1364.74,326.72763481506644L1365.9466666666667,331.4728165074729L1367.1533333333334,333.3624840292807L1369.5666666666666,331.54272422021484L1370.7733333333333,333.9557008456117L1371.98,333.95184435097434L1373.1866666666667,335.8947127452377L1374.3933333333334,333.3485495037367L1375.6,334.9257249456066L1376.8066666666666,336.4029942598201L1378.0133333333333,337.3605201742057L1379.22,336.8061039884987L1380.4266666666667,336.8365245962949L1381.6333333333334,336.57433106488355L1382.84,336.03302613756875L1384.0466666666666,331.66626231707227L1385.2533333333333,324.70849477074796L1386.46,324.6756827549473L1387.6666666666667,327.0874120003781L1388.8733333333332,326.1781753913642L1390.08,329.812365714376L1391.2866666666666,332.9294482933595L1392.4933333333333,334.6352016309046L1393.7,335.8426748526703L1394.9066666666668,332.550385342992" style="fill: none;" fill="none"></path></g></g></g></g><g opacity="0.2"><g><g><g><path stroke="rgb(255, 112, 67)" stroke-width="2px" d="M156.86666666666667,-53.95890159606937L158.07333333333332,12.3879072546959L159.28,-17.39351834058765L160.48666666666668,32.94087277650834L161.69333333333333,-51.28431911468509L164.10666666666665,-26.67766143083576L165.31333333333333,1.097220587730416L166.52,-30.988061738014256L167.72666666666666,40.28231226205827L168.93333333333334,12.082796680927284L170.14,-14.1337698221207L172.55333333333334,22.158029603958138L173.76,-4.417060923576388L174.96666666666667,-18.75867356061939L176.17333333333335,58.22006355524064L177.38,9.202178049087532L178.58666666666667,12.624683666229256L179.79333333333332,21.74393491744996L181,-12.112799894809756L182.20666666666665,-23.551974606514012L183.41333333333336,64.45986466407777L184.62,88.5818913459778L185.82666666666665,38.00452183485032L187.03333333333336,67.18502925634385L188.24,32.512913513183605L189.44666666666666,11.065379428863533L190.6533333333333,111.7319145679474L191.86,106.15401779413224L194.2733333333333,56.670197117328655L195.48000000000002,43.72018800973893L196.68666666666667,6.901894199848184L197.89333333333332,49.01937757730485L200.30666666666667,85.15698133707048L201.51333333333332,65.90070204734803L202.72000000000003,114.84686027765275L203.92666666666668,58.24152331352235L205.13333333333333,90.86990605592729L206.33999999999997,61.051246094703686L207.54666666666668,91.9683310866356L208.75333333333333,110.91044400930406L209.95999999999998,60.920105624198925L211.16666666666669,68.65741585493089L212.37333333333333,159.62109543681146L213.57999999999998,63.980424451828014L214.7866666666667,119.50430195331575L215.99333333333334,138.39522604942323L217.2,133.43503324985505L218.4066666666667,106.00802402496339L219.61333333333334,142.83717130422593L220.82,131.1870393037796L222.02666666666664,75.80459396839143L223.23333333333335,78.08766506910325L224.44,114.68057523965837L225.64666666666665,138.37444041967393L226.85333333333335,128.13654028177262L228.06,126.73900442123414L229.26666666666665,80.99315904378892L230.47333333333336,135.31241379976274L232.88666666666666,146.70846675634385L234.0933333333333,154.92291392683984L235.3,89.42720358371736L236.50666666666666,140.96232997179033L237.7133333333333,102.71951268911363L238.92000000000002,126.58103363513948L240.12666666666667,149.6045004606247L241.33333333333331,119.8595002770424L242.54000000000002,166.05830385088922L243.74666666666667,149.7970315694809L244.95333333333332,147.68388580083848L246.16000000000003,185.6722982108593L247.36666666666667,173.99412246346475L248.57333333333332,183.41514735221864L249.77999999999997,162.2318828880787L250.98666666666668,163.17188771367074L252.19333333333333,171.47743211984636L253.39999999999998,135.7736750125885L254.60666666666668,136.3687507390976L255.81333333333333,150.04971741437913L257.02,156.8597076714039L259.43333333333334,178.3410493016243L260.64,197.84485735297204L261.8466666666667,186.2582282602787L263.05333333333334,154.6298253118992L264.26,174.19000174403192L265.46666666666664,171.83337198495866L266.67333333333335,215.99920614361764L267.88,106.5579780817032L269.08666666666664,201.80947466492654L270.29333333333335,176.93883948326112L271.5,124.5401095032692L272.70666666666665,158.7146846830845L273.91333333333336,183.75737993717195L275.12,128.84920649528505L276.32666666666665,146.58799998760225L277.53333333333336,156.13899685740472L278.74,191.58847268223764L279.94666666666666,189.13231908082963L281.1533333333333,217.12729282975198L282.36,175.9317813396454L283.56666666666666,204.48375378847123L284.7733333333333,182.65674151778222L285.98,206.23590372800828L287.18666666666667,176.03209166526796L288.3933333333333,200.19145383238794L289.6,163.42752848863603L290.8066666666667,192.48469285964967L292.0133333333333,230.0053499519825L293.22,139.28044669628144L294.4266666666667,142.63412379026414L295.6333333333333,210.51669855713845L296.84,211.90301017761232L298.0466666666667,186.0245977818966L299.25333333333333,194.06854661107064L300.46,215.28131543397905L302.87333333333333,210.34349246621133L305.2866666666667,183.78025536537172L306.49333333333334,208.66541801691056L307.7,185.28076435923577L308.9066666666667,199.02411039471627L310.11333333333334,238.3954300761223L311.32,226.24546547532083L312.52666666666664,191.80904753804208L313.73333333333335,211.7462303519249L314.94,213.84821929335595L316.14666666666665,216.62702204585077L317.35333333333335,214.9351279616356L318.56,225.92799587845803L319.76666666666665,151.6168415427208L320.97333333333336,210.56889857649804L322.18,238.59894948005677L323.38666666666666,252.8710875540972L324.5933333333333,226.17300789356233L325.8,216.44069291949273L327.00666666666666,226.64949317574502L328.2133333333333,240.34805460572244L329.42,257.1446467369795L330.62666666666667,242.3430705845356L331.8333333333333,228.92791278958322L333.04,246.2410727620125L334.24666666666667,251.00371219515802L335.4533333333333,218.0848924100399L336.66,204.6884192109108L337.8666666666667,200.70054446458818L339.0733333333333,212.19866048097612L340.28,230.12701891660691L341.4866666666667,210.47258808016778L342.6933333333333,249.2071708917618L343.9,214.86252431869508L345.1066666666667,215.0432244718075L346.31333333333333,245.58148855268956L348.7266666666667,275.70562424063684L349.93333333333334,243.32329841256143L351.14,239.12127550244332L352.3466666666667,218.17596717476846L353.55333333333334,257.0729194611311L354.76,260.3852668583393L355.96666666666664,262.33573417663575L357.17333333333335,244.25549458265306L358.38,252.02317430377008L359.58666666666664,252.24597378373147L360.79333333333335,259.21382808983327L362,201.3136194229126L363.2066666666667,221.90321259498597L365.62,240.5607758641243L366.8266666666667,259.8103588104248L368.0333333333333,257.9609040349722L369.24,240.80776532292367L370.4466666666667,236.9903102695942L371.6533333333333,222.0255893945694L372.86,249.55318421423436L374.0666666666667,233.41510330438615L375.2733333333333,247.94310124516488L376.48,251.90348278284074L377.6866666666666,267.5849371135235L378.8933333333333,262.2883935004473L380.1,280.2970574975014L381.3066666666666,281.46907489299775L382.5133333333333,251.98269288539888L383.72,212.41728036403657L384.9266666666666,293.3424529835582L386.1333333333333,263.5210824638605L387.34000000000003,241.3466187298298L388.5466666666666,274.3064480006695L389.75333333333333,256.9160048097372L390.96000000000004,256.3193729698658L392.16666666666663,247.62075545191766L393.37333333333333,263.24904913008214L394.58000000000004,246.9664350628853L395.78666666666663,277.9467982530594L396.99333333333334,274.992772641778L398.20000000000005,262.5586516290903L399.40666666666664,253.28901353776456L400.61333333333334,261.65913383960725L401.82000000000005,225.5872913181782L403.02666666666664,255.37595817744733L404.23333333333335,263.77155492007734L405.44000000000005,289.8411951094866L406.64666666666665,284.8788113921881L407.85333333333335,289.67578643858434L409.05999999999995,266.8619061738253L410.26666666666665,257.0422915548086L412.67999999999995,274.17378512322904L413.88666666666666,258.7673583805561L415.09333333333336,298.9742407158017L416.29999999999995,285.0260522991419L417.50666666666666,222.99199758768083L418.71333333333337,290.09794819653035L419.91999999999996,260.7566498845816L421.12666666666667,279.8830751657486L422.33333333333337,275.8372759252787L423.53999999999996,280.54100214242936L424.74666666666667,223.88688074350358L425.9533333333334,278.5546824216843L427.15999999999997,296.8148075968027L428.3666666666667,260.69925907552243L429.5733333333334,272.41739940941335L431.9866666666667,279.55846542418004L433.1933333333334,270.4410399377346L434.4,296.03733516037465L435.6066666666667,297.8335731059313L436.8133333333334,275.9592370122671L438.02,300.877457241714L439.2266666666667,267.22577828466893L440.4333333333333,279.1697853833437L441.64,283.88537064492704L444.0533333333333,299.81614298671485L445.26,290.6023817241192L446.4666666666667,277.54850626289846L447.6733333333333,242.72081850767137L448.88,268.4020033657551L451.2933333333333,273.3757461488247L452.5,278.36758366525174L453.7066666666667,303.4838853284717L454.9133333333333,293.789346832037L456.12,291.79144333601L457.3266666666667,282.97609484493734L458.5333333333333,317.2758627153933L459.74,291.7869322925806L460.9466666666667,286.8891188532114L462.1533333333333,259.71205963492395L463.36,283.2192923307419L464.5666666666667,300.2016827121377L465.7733333333333,276.8936578065157L466.98,315.9750502549112L468.1866666666666,274.3812481790781L469.3933333333333,303.46199300438167L470.6,275.1968369662762L471.8066666666666,297.83086254745723L473.0133333333333,319.0465231008828L474.22,311.934131424129L475.4266666666666,285.16994503438474L476.6333333333333,277.56756162941457L477.84000000000003,272.62868814468385L479.0466666666666,279.1315791487694L480.25333333333333,260.63911557495595L481.46000000000004,291.93935275375844L482.66666666666663,289.9173716336489L483.87333333333333,298.2597515463829L485.08000000000004,285.0150808572769L486.28666666666663,316.6363745585084L487.49333333333334,299.27343862056733L488.70000000000005,292.9862631291151L489.90666666666664,297.1005116954446L491.11333333333334,306.03989702761174L492.32000000000005,286.1065455108881L493.52666666666664,309.93376455008985L494.73333333333335,287.81076491177083L497.14666666666665,297.8395222902298L498.35333333333335,293.2949128776789L499.55999999999995,276.43770535588266L500.76666666666665,325.5729678750038L501.97333333333336,301.016215364635L503.17999999999995,317.29505150318147L504.38666666666666,315.17721211463214L505.59333333333336,292.13225463330747L506.79999999999995,279.8559471100569L508.00666666666666,291.21541735827924L509.21333333333337,298.22679227888585L510.41999999999996,283.15709835588933L511.62666666666667,293.5249732837081L512.8333333333334,278.43059782981874L514.04,291.0482840418816L515.2466666666667,291.2676398485899L516.4533333333334,309.9592522263527L517.66,316.32160147577525L518.8666666666667,313.2882562160492L520.0733333333334,308.23755604326726L521.28,304.82980822324754L522.4866666666667,293.46161643713714L523.6933333333334,310.4361363679171L524.9,307.6630749434233L526.1066666666667,284.25499531924726L527.3133333333334,309.8902158468962L528.52,304.43571268320085L529.7266666666667,282.85230237543584L532.14,310.6582504838705L533.3466666666667,325.9353737562895L534.5533333333333,313.75620534569026L535.76,302.00542876422406L536.9666666666667,313.20018974989654L538.1733333333333,319.9592945381999L539.38,323.5898769490421L540.5866666666667,275.08529678285123L541.7933333333333,316.35929228290917L543,315.98827019631864L544.2066666666667,307.03192210495473L545.4133333333333,324.6030710667372L546.62,300.62592022418977L547.8266666666667,306.004437866807L549.0333333333333,287.9409503668547L550.24,321.33792249783875L551.4466666666667,310.10620662868024L552.6533333333333,320.0746070325375L553.86,322.5471503838897L555.0666666666667,316.88738912642003L556.2733333333333,319.5465523220599L557.48,270.8929700881243L558.6866666666666,318.26691171079875L559.8933333333333,308.32900157868863L561.1,318.3321308374405L562.3066666666666,298.09511812329293L563.5133333333333,316.8411537401378L564.72,307.78980268090965L565.9266666666666,308.7143924340606L567.1333333333333,324.3541785992682L570.7533333333333,320.56432349160315L571.96,312.5884714752436L573.1666666666666,310.2450068846345L574.3733333333333,310.94161198586227L575.58,324.86074265390636L576.7866666666666,313.4189360320568L577.9933333333333,308.5283020615578L579.2,312.27571796923877L580.4066666666666,327.3405371002853L581.6133333333333,299.51720349788667L582.82,310.09615649580957L584.0266666666666,312.12525248080493L585.2333333333333,322.8678642243147L586.44,305.6752496689558L587.6466666666666,314.4354656815529L588.8533333333334,299.48308697640897L591.2666666666667,302.2418933913112L592.4733333333334,319.28786532878877L593.68,320.85429285764695L594.8866666666667,286.124702039361L596.0933333333334,316.2230326488614L597.3,322.593541662395L598.5066666666667,323.8151664912701L599.7133333333334,303.96338171809913L600.92,315.4605202481151L602.1266666666667,326.29604796990753L603.3333333333334,304.08506472706796L604.54,319.4576010622084L605.7466666666667,327.55174437835814L606.9533333333334,319.6674951940775L608.16,312.17064661085607L609.3666666666667,326.81509323343636L610.5733333333334,299.58358268737794L611.78,299.778096857667L612.9866666666667,317.1273732662201L614.1933333333334,316.80757933035494L615.4,332.16498990654947L616.6066666666667,330.2066844396293L617.8133333333334,319.18665476068855L619.02,281.96655366122724L620.2266666666667,326.3642065778375L621.4333333333333,310.90802072286607L622.64,311.3055262297392L623.8466666666667,321.23493812903763L625.0533333333333,321.31619870588185L626.26,317.80131219998003L627.4666666666667,317.86365364044906L628.6733333333333,304.35500826239587L629.88,316.7817714430392L631.0866666666667,324.09834401234986L632.2933333333333,314.79038592725993L633.5,327.81049106009306L634.7066666666667,319.95715558454395L635.9133333333333,311.2220129400492L637.12,306.3427464619279L638.3266666666667,308.6832926377654L639.5333333333333,306.1430386930704L640.74,319.9631749905646L641.9466666666667,292.8824698060751L643.1533333333333,325.0654403783381L644.36,301.6125269934535L645.5666666666667,309.8315413847566L646.7733333333333,293.42997452914716L647.98,319.7499832466245L649.1866666666666,330.90814677737654L650.3933333333333,313.55522515922786L651.6,321.52208458185197L652.8066666666666,316.8714010447264L654.0133333333333,325.67856870517136L655.22,314.1430989459157L656.4266666666666,321.11546289101244L657.6333333333333,321.9787898093462L658.84,324.54329271912576L660.0466666666666,326.0355211675167L661.2533333333333,311.4170916929841L663.6666666666666,321.22536690831186L664.8733333333333,296.658426630497L666.08,311.97549201846124L667.2866666666666,328.0369217053056L668.4933333333333,323.92481490150095L669.7,330.13641426451505L670.9066666666666,323.36069150567056L672.1133333333333,321.5242221310735L674.5266666666666,319.9845294162631L675.7333333333333,325.94767660200597L676.94,311.0757776081562L678.1466666666666,326.82763483300806L679.3533333333334,309.78049581050874L680.56,314.64110859036447L681.7666666666667,310.2786009564996L682.9733333333334,311.2895297214389L684.18,336.6079698784277L685.3866666666667,333.1537468649447L686.5933333333334,314.5305908352137L687.8,320.7932477101684L689.0066666666667,315.76562660858036L690.2133333333334,325.60756049975754L692.6266666666667,319.02742700576783L693.8333333333334,318.7601027406752L695.04,335.13375259954483L697.4533333333334,335.4855781739578L698.66,323.97209097370506L699.8666666666667,310.0473664432764L701.0733333333334,311.45762367099525L702.28,308.4702455505729L703.4866666666667,318.0107990458608L704.6933333333334,311.35176302045585L705.9,320.7184053987265L707.1066666666667,330.9454359162599L708.3133333333334,322.78765978217126L709.52,326.66493531614543L710.7266666666667,314.20812987834216L711.9333333333333,333.5058849260211L713.14,326.6581968396902L714.3466666666667,314.80168600678445L716.76,333.41258343048395L717.9666666666667,329.68153409957887L719.1733333333333,323.06911967992784L720.38,330.6655932247639L721.5866666666667,329.9497944202274L722.7933333333333,310.4475684642792L724,317.2351327121258L725.2066666666667,318.69488642290236L726.4133333333334,326.4436498165131L727.6199999999999,332.4419654451311L728.8266666666666,312.38053372055293L730.0333333333333,310.013463395834L732.4466666666667,316.49026141241194L733.6533333333334,295.86924963742496L734.8599999999999,324.9423936635256L736.0666666666666,313.06124062389136L737.2733333333333,330.31752942800523L738.48,324.2303819164634L739.6866666666667,309.4396564245224L740.8933333333334,330.94327027834953L742.0999999999999,331.8476031713188L744.5133333333333,331.1727534618229L745.72,321.56465018093587L746.9266666666667,331.06162337325514L748.1333333333334,305.87552482932807L749.3399999999999,316.3524063408375L750.5466666666666,320.06803989708425L751.7533333333333,330.75419758930803L752.96,332.87073155604304L754.1666666666667,332.90673493519427L756.5799999999999,335.1311954755336L757.7866666666666,311.79565137922765L758.9933333333333,329.3880178343505L760.2,312.40203280299903L761.4066666666668,332.8926021113992L762.6133333333332,332.4518365126103L763.8199999999999,316.78530078679324L765.0266666666666,336.70204679733143L766.2333333333333,308.02071417421104L767.44,327.6532512821257L768.6466666666668,318.1479069583118L769.8533333333332,308.54892758578063L771.06,325.72451899126173L772.2666666666667,334.3669924868271L773.4733333333334,330.8839476697147L774.6800000000001,322.79700067564846L775.8866666666668,315.483929361403L777.0933333333332,310.16704111099244L778.3,330.26934328228236L779.5066666666667,329.79269508570434L780.7133333333334,328.74997905381025L781.9200000000001,332.9896667890251L783.1266666666668,328.6896312080324L784.3333333333333,321.38419720828534L785.54,315.70730185061694L786.7466666666667,330.95668754279615L787.9533333333334,322.92376211956145L789.1600000000001,336.9656940774992L790.3666666666666,321.8675614103675L791.5733333333333,313.99133856892587L792.78,325.3442641526461L793.9866666666667,327.7657176900655L795.1933333333334,331.76987615153195L796.4000000000001,323.7715686328709L797.6066666666666,334.00015105046333L798.8133333333333,328.11251258030535L800.02,317.49878578558565L801.2266666666667,317.288258253783L802.4333333333334,327.6452017661184L803.6400000000001,315.57199582755567L804.8466666666666,333.06312854141L806.0533333333333,335.8731813646853L807.26,322.7074244424701L808.4666666666667,306.172882924974L809.6733333333334,328.4709516365081L810.8800000000001,325.8020592212677L812.0866666666666,299.80549456477166L813.2933333333333,328.8309327617288L814.5,327.07155700698496L815.7066666666667,332.22121222615243L816.9133333333334,333.880373859033L818.1199999999999,336.70250007854776L819.3266666666666,322.5798694930971L820.5333333333333,335.1004271257669L821.74,330.0058348655701L824.1533333333334,333.0438526786864L826.5666666666666,335.648996761255L827.7733333333333,332.7118626341224L828.98,307.5705451846123L830.1866666666667,312.8699201375246L831.3933333333334,329.14848451800646L832.5999999999999,326.628991625458L833.8066666666666,317.85222435295583L835.0133333333333,320.90860093310476L836.22,332.41239929124714L837.4266666666667,322.66895698308946L838.6333333333334,323.4286520883441L839.8399999999999,330.3340111684054L841.0466666666666,331.914197941497L842.2533333333333,329.46198448091747L843.46,334.40728430654855L844.6666666666667,326.22441057786347L845.8733333333332,328.3440462380648L847.0799999999999,320.5364637255669L848.2866666666666,323.91229015514256L849.4933333333333,329.60821349285544L850.7,334.4197644621134L851.9066666666668,318.2778536595404L853.1133333333332,336.8407317141071L854.3199999999999,299.11019839644433L855.5266666666666,337.39758329950274L856.7333333333333,328.1842812869698L857.94,332.40473669692875L859.1466666666668,317.57347922697664L860.3533333333332,324.3969815477729L861.56,326.2892238229513L862.7666666666667,326.4291307732463L863.9733333333334,331.13184439316393L865.1800000000001,337.94125812985004L866.3866666666668,331.4433844678104L867.5933333333332,316.6872431740165L868.8,323.84105724021794L870.0066666666667,327.47193458229304L871.2133333333334,322.3217260159552L872.4200000000001,330.17647224590183L873.6266666666668,334.89174045640976L874.8333333333333,329.84781843535603L876.04,336.62296379609035L877.2466666666667,337.90363219003194L878.4533333333334,297.1033795505762L879.6600000000001,329.44346069283785L880.8666666666666,333.516040391475L882.0733333333333,331.2579415395856L883.28,333.94235330652447L884.4866666666667,325.8746488198638L885.6933333333334,312.77064066678287L886.9000000000001,330.9845030691475L888.1066666666666,331.5419989388436L889.3133333333333,315.27764041274787L890.52,333.83374768886716L891.7266666666667,310.4458016857505L892.9333333333334,326.82844378724695L894.1400000000001,320.745513792336L895.3466666666666,336.08085789456965L896.5533333333333,334.0727603111416L897.76,323.4282925531268L898.9666666666667,316.59916125908495L900.1733333333334,324.91349461600186L901.3800000000001,325.242048009485L903.7933333333333,333.4595635181293L905,324.8011553093791L906.2066666666667,335.9238516038284L907.4133333333334,333.814182863757L908.6199999999999,324.9730552762747L909.8266666666666,325.5649906873703L911.0333333333333,335.22174147069455L912.24,335.20531625878067L913.4466666666667,326.39951405972243L914.6533333333334,336.91977662006394L915.8599999999999,331.23520234152676L917.0666666666666,338.0150835429784L918.2733333333333,335.97899040225894L919.48,337.6085823701695L920.6866666666667,335.2118366967887L921.8933333333334,333.9512858606875L923.0999999999999,324.01816063672305L924.3066666666666,333.00232285000385L925.5133333333333,329.2102824423462L926.72,316.14613003209234L929.1333333333334,338.1123508980498L930.3399999999999,328.55433712266387L931.5466666666666,334.3973739149049L932.7533333333333,331.5402181159705L933.96,334.6854174502194L935.1666666666667,328.23756061419846L936.3733333333332,334.5772682737559L937.5799999999999,333.77071947995574L938.7866666666666,334.95369462408127L939.9933333333333,300.33643257915975L941.2,335.99914824981244L942.4066666666668,334.71355037875475L943.6133333333332,331.8103926807642L944.8199999999999,337.0957784133032L946.0266666666666,333.2917086735368L947.2333333333333,327.525506734103L948.44,337.61147866509856L949.6466666666668,332.2792406484485L950.8533333333332,328.7294265601784L952.06,335.34152463097126L953.2666666666667,325.84170921444894L954.4733333333334,331.18765942677857L955.6800000000001,309.93446114957334L956.8866666666668,309.1236362040043L958.0933333333332,333.48928556423635L959.3,324.99689835980536L960.5066666666667,314.8147051140666L961.7133333333334,302.5960299625993L962.9200000000001,326.3733831524849L964.1266666666668,330.7301543738693L965.3333333333333,336.5760105682537L966.54,330.83408111818136L968.9533333333334,337.0998505709693L970.1600000000001,295.26442994475366L971.3666666666666,337.0096718354151L972.5733333333333,336.02818528302015L973.78,321.90101925209166L974.9866666666667,337.51123276790605L976.1933333333334,328.0380614038557L977.4000000000001,319.2552599787712L978.6066666666666,321.5048044204712L979.8133333333333,327.61093145906926L981.02,330.0812024354935L982.2266666666667,324.28363104835154L983.4333333333334,331.56344675943257L984.6400000000001,326.9655348464847L985.8466666666666,330.97530683241786L987.0533333333333,336.0141325119883L988.26,337.6283838424832L989.4666666666667,330.0100924085826L990.6733333333334,322.37530799880625L991.8800000000001,323.2438566043973L993.0866666666666,312.1953169062734L994.2933333333333,324.33208263218404L995.5,285.88644254505635L996.7066666666667,325.1713529929519L997.9133333333334,332.51080239489676L999.1199999999999,337.43737443834544L1000.3266666666666,335.6358818013221L1001.5333333333333,310.2577170163393L1002.74,315.1663895428181L1003.9466666666667,336.26911214943976L1005.1533333333334,327.6286041598767L1006.3599999999999,337.0691699983552L1007.5666666666666,338.2145537868608L1008.7733333333333,336.9001289333217L1009.98,319.51953662112356L1011.1866666666667,336.2241042388603L1012.3933333333334,326.67188586220146L1013.5999999999999,320.5023837193847L1014.8066666666666,336.65105230938644L1016.0133333333333,335.6172424985096L1017.22,335.30156741775573L1018.4266666666667,333.8148450545967L1019.6333333333334,337.4807472361252L1020.8399999999999,333.2949760902673L1022.0466666666666,326.2467761963606L1023.2533333333333,331.97911441251637L1025.6666666666667,331.9555824112147L1026.8733333333332,333.45722689032556L1028.08,337.9281358844135L1029.2866666666666,338.28525433335454L1030.4933333333333,335.08768363874407L1031.7,336.46192677849905L1032.9066666666668,326.9037790551782L1034.1133333333332,338.5618040649686L1035.32,335.5127322116867L1036.5266666666666,330.87079654559494L1037.7333333333333,324.80822523236276L1040.1466666666668,338.28819899349475L1041.3533333333332,337.12121974322946L1042.56,335.2569264156744L1043.7666666666667,336.6490497614257L1044.9733333333334,334.5226097919047L1046.18,333.80726391747595L1047.3866666666668,334.66747650243343L1048.5933333333332,316.8120973959565L1049.8,324.4749318726361L1051.0066666666667,335.9748311696574L1052.2133333333334,309.26957098692657L1053.42,314.8329430997372L1054.6266666666668,327.44234033972026L1057.04,338.38162741479465L1058.2466666666667,337.05545429158957L1059.4533333333334,322.03873107135297L1060.66,334.6607710301876L1061.8666666666666,328.14085617400707L1063.0733333333333,333.6189917560667L1064.28,329.40216048918666L1065.4866666666667,338.1884387672879L1066.6933333333334,335.6166979290545L1069.1066666666666,335.28630823753775L1070.3133333333333,323.4755335144699L1071.52,323.67491685897113L1072.7266666666667,330.1356860652566L1073.9333333333334,334.7753486542031L1075.14,333.09492212831975L1076.3466666666666,338.83114904789255L1077.5533333333333,332.90360655747355L1078.76,333.88251597266645L1079.9666666666667,328.2948587305844L1081.1733333333334,334.0089157747105L1082.38,333.2604754559696L1083.5866666666666,291.285914349556L1084.7933333333333,329.3971276983619L1086,338.72449432134164L1087.2066666666667,326.7747031033039L1089.62,327.90486694797875L1090.8266666666666,335.9645542206243L1092.0333333333333,321.1624131344259L1093.24,334.0642217008397L1094.4466666666667,338.6169072258752L1095.6533333333334,335.99200810510666L1096.86,335.7573313230649L1098.0666666666666,336.7892044188455L1099.2733333333333,322.7352434799075L1100.48,332.2922716934234L1101.6866666666667,325.98676060810686L1102.8933333333334,333.75389470644296L1104.1,318.05738694518806L1105.3066666666666,335.7345815917477L1106.5133333333333,327.55401464663447L1107.72,334.59364819265903L1108.9266666666667,337.29357983795927L1110.1333333333334,337.3933508607559L1111.34,337.08905784338714L1112.5466666666666,321.29198485165836L1113.7533333333333,337.3823778389022L1114.96,322.6228283338249L1116.1666666666667,334.244627976045L1117.3733333333332,338.38391146408395L1118.58,338.02325533255936L1119.7866666666666,316.25201736688615L1120.9933333333333,321.88455647155644L1122.2,331.38549087122084L1123.4066666666668,337.2417202183977L1124.6133333333332,338.76160220040475L1125.82,333.4165642999113L1127.0266666666666,337.08469461668284L1128.2333333333333,330.4901393365115L1129.44,327.72617864720524L1130.6466666666668,336.9489298702218L1131.8533333333332,338.9991112219985L1133.06,333.51878395415844L1134.2666666666667,310.87916802167894L1135.4733333333334,334.8476798368618L1137.8866666666668,330.5207152787596L1139.0933333333332,336.08713009878994L1140.3,333.39807281382383L1141.5066666666667,308.5156256362796L1143.92,302.8639595389366L1145.1266666666668,326.9414207071066L1146.3333333333333,338.49216351537035L1147.54,315.49882479310037L1148.7466666666667,337.81994027383627L1151.16,332.0233028355986L1152.3666666666666,335.3594469700009L1153.5733333333333,318.95000193938614L1154.78,331.12080624066294L1155.9866666666667,338.0315494834911L1157.1933333333334,338.6353288852377L1158.4,333.37441020011903L1159.6066666666666,338.0772633857094L1160.8133333333333,333.8503340596333L1162.02,337.5486844700761L1165.64,335.84940428957344L1166.8466666666666,316.8825817473233L1168.0533333333333,338.4421030641068L1169.26,327.74453741423787L1170.4666666666667,338.45461622388103L1171.6733333333334,336.7907447323203L1172.88,329.915640681237L1174.0866666666666,335.27248122934253L1175.2933333333333,329.7260139428079L1176.5,331.37900097966195L1178.9133333333334,336.87837424380706L1180.12,336.49764927076177L1181.3266666666666,335.03154207412155L1182.5333333333333,332.7768303669989L1183.74,325.2927424751222L1184.9466666666667,321.5037581168115L1186.1533333333334,338.2009675513953L1187.36,338.3986841833219L1188.5666666666666,328.3732907764614L1189.7733333333333,331.4595263350755L1190.98,331.6079251982272L1192.1866666666667,323.31876632869245L1193.3933333333334,339.0427077856846L1194.6,334.6437310270965L1195.8066666666666,324.2388113319874L1198.22,338.67306204484777L1199.4266666666667,309.0051749676466L1200.6333333333334,333.71609751340003L1201.84,335.44249328523875L1203.0466666666666,332.43777320832015L1204.2533333333333,321.0898066826165L1205.46,319.86294471770526L1206.6666666666667,331.4738782506436L1207.8733333333332,329.9477853767574L1209.08,339.0855253710295L1210.2866666666666,321.361250153929L1212.7,338.8607830096269L1213.9066666666668,332.3397942438722L1215.1133333333332,336.36671490101145L1216.32,334.1847207715735L1217.5266666666666,334.2978153128177L1219.94,332.5846194691956L1221.1466666666668,336.28830831050874L1223.56,327.2545168951154L1224.7666666666667,338.637184274802L1225.9733333333334,333.572026414983L1227.18,338.5638493165141L1228.3866666666668,332.7364184681326L1229.5933333333332,319.4507333777845L1230.8,314.6534226715565L1232.0066666666667,327.1218526132405L1233.2133333333334,338.30544922286646L1234.42,336.1027031701058L1235.6266666666668,337.625997532811L1236.8333333333333,338.23406313681045L1238.04,337.623629129678L1239.2466666666667,338.42181697413326L1240.4533333333334,335.7232558812946L1241.66,329.43198997452856L1242.8666666666666,336.33452473692597L1244.0733333333333,316.4752971634269L1245.28,334.35163218732924L1246.4866666666667,335.2947422174737L1247.6933333333334,335.81712125726045L1248.9,337.51663615386934L1250.1066666666666,328.07574308216573L1251.3133333333333,325.50431209728123L1252.52,314.6488947749138L1254.9333333333334,336.1223185548559L1256.14,313.21007977724076L1257.3466666666666,308.6630743995309L1258.5533333333333,337.9862081952859L1259.76,325.4140238158405L1260.9666666666667,332.1947414457798L1262.1733333333334,337.17772049196066L1263.38,338.84969381471166L1264.5866666666666,337.10340256122873L1265.7933333333333,322.8056393519044L1267,331.71534757986666L1268.2066666666667,338.9486011981033L1269.4133333333334,338.8092380711576L1270.62,336.24637049362065L1271.8266666666666,338.26522753708997L1273.0333333333333,338.1292162246071L1274.24,330.13785802312196L1275.4466666666667,336.9308540967293L1276.6533333333334,328.5536271810532L1279.0666666666666,336.12631662860514L1280.2733333333333,334.16087171919645L1281.48,333.9663343757391L1282.6866666666667,323.5226874008775L1283.8933333333334,323.3641337744892L1285.1,338.7805628114846L1286.3066666666666,331.07977077290417L1288.72,338.9877076093224L1289.9266666666667,334.5658846303821L1291.1333333333334,336.79269145401196L1292.34,327.9960210632533L1293.5466666666666,337.8150207155384L1294.7533333333333,328.4169167235494L1295.96,338.0549428846687L1298.3733333333332,330.74035267457367L1299.58,336.8625903317705L1300.7866666666666,336.33287909086795L1301.9933333333333,333.18075413927437L1303.2,322.49430151581765L1304.4066666666668,336.3418014628813L1305.6133333333332,338.6733909019502L1306.82,318.75876291021706L1308.0266666666666,314.1974252790213L1310.44,335.6377310903743L1311.6466666666668,337.4103773461655L1312.8533333333332,337.1769357642159L1314.06,335.26440643351526L1315.2666666666667,336.53537589097397L1316.4733333333334,335.87909578923137L1317.68,329.21695210151375L1318.8866666666668,331.50221482217313L1320.0933333333332,337.0317505981773L1321.3,338.7321666150354L1322.5066666666667,331.6458112217486L1323.7133333333334,337.55843844283373L1324.92,328.08080045059324L1326.1266666666668,336.05916078686715L1327.3333333333333,336.41191012803466L1328.54,338.02770422976465L1329.7466666666667,332.3665037781L1330.9533333333334,334.16068282276393L1332.16,337.68488371344284L1333.3666666666666,336.23751834332944L1334.5733333333333,333.09792832024397L1335.78,337.50283003663645L1336.9866666666667,329.5166233006865L1339.4,333.53725437372924L1340.6066666666666,338.7877916988917L1341.8133333333333,330.0022676020861L1343.02,319.8938956439495L1344.2266666666667,334.09911873675884L1345.4333333333334,328.49066427834333L1346.64,331.86199019774796L1347.8466666666666,338.11865119095893L1349.0533333333333,335.6023723466322L1351.4666666666667,337.50850395178423L1352.6733333333334,336.9015554876067L1353.88,323.094709879905L1355.0866666666666,337.610571576003L1356.2933333333333,333.89262228291483L1357.5,335.57004402130843L1358.7066666666667,332.9534667890519L1359.9133333333334,336.9132280933671L1361.12,328.46587320156397L1362.3266666666666,338.2119333755225L1363.5333333333333,321.5829934991896L1364.74,322.5988532334566L1365.9466666666667,338.59058904608247L1367.1533333333334,336.1969853119925L1369.5666666666666,328.813084506616L1370.7733333333333,337.57516578370706L1371.98,333.9460596090183L1373.1866666666667,338.80901533663274L1374.3933333333334,329.5293046414852L1375.6,337.29148810841144L1376.8066666666666,338.61889823114035L1378.0133333333333,338.7968090457842L1379.22,335.9744797099382L1380.4266666666667,336.88215550798924L1381.6333333333334,336.18104076776655L1382.84,335.2210687465966L1384.0466666666666,325.11611658632756L1385.2533333333333,314.27184345126153L1386.46,324.62646473124624L1387.6666666666667,330.7050058685243L1388.8733333333332,324.8143204778433L1390.08,335.2636511988938L1391.2866666666666,337.6050721618347L1392.4933333333333,337.19383163722233L1393.7,337.6538846853189L1394.9066666666668,327.61195107847453" style="fill: none;" fill="none"></path></g></g></g></g></g></g><g transform="translate(50, 377)" clip-path="url(#clip_1)"><clipPath id="clip_1"><rect width="1448" height="23"></rect></clipPath><g><g><line x1="0" y1="0" x2="0" y2="5" style="visibility: inherit;" fill="rgb(0, 0, 0)" stroke="rgb(204, 204, 204)" stroke-width="1px"></line><line x1="120.66666666666666" y1="0" x2="120.66666666666666" y2="5" style="visibility: inherit;" fill="rgb(0, 0, 0)" stroke="rgb(204, 204, 204)" stroke-width="1px"></line><line x1="241.33333333333331" y1="0" x2="241.33333333333331" y2="5" style="visibility: inherit;" fill="rgb(0, 0, 0)" stroke="rgb(204, 204, 204)" stroke-width="1px"></line><line x1="362" y1="0" x2="362" y2="5" style="visibility: inherit;" fill="rgb(0, 0, 0)" stroke="rgb(204, 204, 204)" stroke-width="1px"></line><line x1="482.66666666666663" y1="0" x2="482.66666666666663" y2="5" style="visibility: inherit;" fill="rgb(0, 0, 0)" stroke="rgb(204, 204, 204)" stroke-width="1px"></line><line x1="603.3333333333334" y1="0" x2="603.3333333333334" y2="5" style="visibility: inherit;" fill="rgb(0, 0, 0)" stroke="rgb(204, 204, 204)" stroke-width="1px"></line><line x1="724" y1="0" x2="724" y2="5" style="visibility: inherit;" fill="rgb(0, 0, 0)" stroke="rgb(204, 204, 204)" stroke-width="1px"></line><line x1="844.6666666666667" y1="0" x2="844.6666666666667" y2="5" style="visibility: inherit;" fill="rgb(0, 0, 0)" stroke="rgb(204, 204, 204)" stroke-width="1px"></line><line x1="965.3333333333333" y1="0" x2="965.3333333333333" y2="5" style="visibility: inherit;" fill="rgb(0, 0, 0)" stroke="rgb(204, 204, 204)" stroke-width="1px"></line><line x1="1086" y1="0" x2="1086" y2="5" style="visibility: inherit;" fill="rgb(0, 0, 0)" stroke="rgb(204, 204, 204)" stroke-width="1px"></line><line x1="1206.6666666666667" y1="0" x2="1206.6666666666667" y2="5" style="visibility: inherit;" fill="rgb(0, 0, 0)" stroke="rgb(204, 204, 204)" stroke-width="1px"></line><line x1="1327.3333333333333" y1="0" x2="1327.3333333333333" y2="5" style="visibility: inherit;" fill="rgb(0, 0, 0)" stroke="rgb(204, 204, 204)" stroke-width="1px"></line><line x1="1448" y1="0" x2="1448" y2="5" style="visibility: inherit;" fill="rgb(0, 0, 0)" stroke="rgb(204, 204, 204)" stroke-width="1px"></line></g><g transform="translate(0, 8)"><text x="0" y="0" dx="0em" dy="0.95em" style="text-anchor: middle; visibility: hidden; font-family: Roboto, sans-serif; font-size: 12px; font-weight: 200;" fill="rgb(33, 33, 33)" stroke="none" stroke-width="1px">-10k</text><text x="120.66666666666666" y="0" dx="0em" dy="0.95em" style="text-anchor: middle; visibility: inherit; font-family: Roboto, sans-serif; font-size: 12px; font-weight: 200;" fill="rgb(33, 33, 33)" stroke="none" stroke-width="1px">0</text><text x="241.33333333333331" y="0" dx="0em" dy="0.95em" style="text-anchor: middle; visibility: inherit; font-family: Roboto, sans-serif; font-size: 12px; font-weight: 200;" fill="rgb(33, 33, 33)" stroke="none" stroke-width="1px">10k</text><text x="362" y="0" dx="0em" dy="0.95em" style="text-anchor: middle; visibility: inherit; font-family: Roboto, sans-serif; font-size: 12px; font-weight: 200;" fill="rgb(33, 33, 33)" stroke="none" stroke-width="1px">20k</text><text x="482.66666666666663" y="0" dx="0em" dy="0.95em" style="text-anchor: middle; visibility: inherit; font-family: Roboto, sans-serif; font-size: 12px; font-weight: 200;" fill="rgb(33, 33, 33)" stroke="none" stroke-width="1px">30k</text><text x="603.3333333333334" y="0" dx="0em" dy="0.95em" style="text-anchor: middle; visibility: inherit; font-family: Roboto, sans-serif; font-size: 12px; font-weight: 200;" fill="rgb(33, 33, 33)" stroke="none" stroke-width="1px">40k</text><text x="724" y="0" dx="0em" dy="0.95em" style="text-anchor: middle; visibility: inherit; font-family: Roboto, sans-serif; font-size: 12px; font-weight: 200;" fill="rgb(33, 33, 33)" stroke="none" stroke-width="1px">50k</text><text x="844.6666666666667" y="0" dx="0em" dy="0.95em" style="text-anchor: middle; visibility: inherit; font-family: Roboto, sans-serif; font-size: 12px; font-weight: 200;" fill="rgb(33, 33, 33)" stroke="none" stroke-width="1px">60k</text><text x="965.3333333333333" y="0" dx="0em" dy="0.95em" style="text-anchor: middle; visibility: inherit; font-family: Roboto, sans-serif; font-size: 12px; font-weight: 200;" fill="rgb(33, 33, 33)" stroke="none" stroke-width="1px">70k</text><text x="1086" y="0" dx="0em" dy="0.95em" style="text-anchor: middle; visibility: inherit; font-family: Roboto, sans-serif; font-size: 12px; font-weight: 200;" fill="rgb(33, 33, 33)" stroke="none" stroke-width="1px">80k</text><text x="1206.6666666666667" y="0" dx="0em" dy="0.95em" style="text-anchor: middle; visibility: inherit; font-family: Roboto, sans-serif; font-size: 12px; font-weight: 200;" fill="rgb(33, 33, 33)" stroke="none" stroke-width="1px">90k</text><text x="1327.3333333333333" y="0" dx="0em" dy="0.95em" style="text-anchor: middle; visibility: inherit; font-family: Roboto, sans-serif; font-size: 12px; font-weight: 200;" fill="rgb(33, 33, 33)" stroke="none" stroke-width="1px">100k</text><text x="1448" y="0" dx="0em" dy="0.95em" style="text-anchor: middle; visibility: hidden; font-family: Roboto, sans-serif; font-size: 12px; font-weight: 200;" fill="rgb(33, 33, 33)" stroke="none" stroke-width="1px">110k</text></g><line x1="0" y1="0" x2="1448" y2="0" fill="rgb(0, 0, 0)" stroke="rgb(204, 204, 204)" stroke-width="1px"></line></g></g></g></g></svg>