<svg viewBox="0 0 1498 400" xmlns="http://www.w3.org/2000/svg"><g><g><g><g><g><line x1="30.78125" y1="377" x2="25.78125" y2="377" style="visibility: inherit;" fill="rgb(0, 0, 0)" stroke="rgb(204, 204, 204)" stroke-width="1px"></line><line x1="30.78125" y1="348" x2="25.78125" y2="348" style="visibility: inherit;" fill="rgb(0, 0, 0)" stroke="rgb(204, 204, 204)" stroke-width="1px"></line><line x1="30.78125" y1="319" x2="25.78125" y2="319" style="visibility: inherit;" fill="rgb(0, 0, 0)" stroke="rgb(204, 204, 204)" stroke-width="1px"></line><line x1="30.78125" y1="290" x2="25.78125" y2="290" style="visibility: inherit;" fill="rgb(0, 0, 0)" stroke="rgb(204, 204, 204)" stroke-width="1px"></line><line x1="30.78125" y1="261" x2="25.78125" y2="261" style="visibility: inherit;" fill="rgb(0, 0, 0)" stroke="rgb(204, 204, 204)" stroke-width="1px"></line><line x1="30.78125" y1="232" x2="25.78125" y2="232" style="visibility: inherit;" fill="rgb(0, 0, 0)" stroke="rgb(204, 204, 204)" stroke-width="1px"></line><line x1="30.78125" y1="203" x2="25.78125" y2="203" style="visibility: inherit;" fill="rgb(0, 0, 0)" stroke="rgb(204, 204, 204)" stroke-width="1px"></line><line x1="30.78125" y1="174" x2="25.78125" y2="174" style="visibility: inherit;" fill="rgb(0, 0, 0)" stroke="rgb(204, 204, 204)" stroke-width="1px"></line><line x1="30.78125" y1="145" x2="25.78125" y2="145" style="visibility: inherit;" fill="rgb(0, 0, 0)" stroke="rgb(204, 204, 204)" stroke-width="1px"></line><line x1="30.78125" y1="116" x2="25.78125" y2="116" style="visibility: inherit;" fill="rgb(0, 0, 0)" stroke="rgb(204, 204, 204)" stroke-width="1px"></line><line x1="30.78125" y1="86.99999999999999" x2="25.78125" y2="86.99999999999999" style="visibility: inherit;" fill="rgb(0, 0, 0)" stroke="rgb(204, 204, 204)" stroke-width="1px"></line><line x1="30.78125" y1="58" x2="25.78125" y2="58" style="visibility: inherit;" fill="rgb(0, 0, 0)" stroke="rgb(204, 204, 204)" stroke-width="1px"></line><line x1="30.78125" y1="28.999999999999982" x2="25.78125" y2="28.999999999999982" style="visibility: inherit;" fill="rgb(0, 0, 0)" stroke="rgb(204, 204, 204)" stroke-width="1px"></line><line x1="30.78125" y1="0" x2="25.78125" y2="0" style="visibility: inherit;" fill="rgb(0, 0, 0)" stroke="rgb(204, 204, 204)" stroke-width="1px"></line></g><g transform="translate(20.78125, 0)"><text x="0" y="377" dx="0em" dy="0.3em" style="text-anchor: end; visibility: hidden; font-family: Roboto, sans-serif; font-size: 12px; font-weight: 200;" fill="rgb(33, 33, 33)" stroke="none" stroke-width="1px">7</text><text x="0" y="348" dx="0em" dy="0.3em" style="text-anchor: end; visibility: inherit; font-family: Roboto, sans-serif; font-size: 12px; font-weight: 200;" fill="rgb(33, 33, 33)" stroke="none" stroke-width="1px">8</text><text x="0" y="319" dx="0em" dy="0.3em" style="text-anchor: end; visibility: inherit; font-family: Roboto, sans-serif; font-size: 12px; font-weight: 200;" fill="rgb(33, 33, 33)" stroke="none" stroke-width="1px">9</text><text x="0" y="290" dx="0em" dy="0.3em" style="text-anchor: end; visibility: inherit; font-family: Roboto, sans-serif; font-size: 12px; font-weight: 200;" fill="rgb(33, 33, 33)" stroke="none" stroke-width="1px">10</text><text x="0" y="261" dx="0em" dy="0.3em" style="text-anchor: end; visibility: inherit; font-family: Roboto, sans-serif; font-size: 12px; font-weight: 200;" fill="rgb(33, 33, 33)" stroke="none" stroke-width="1px">11</text><text x="0" y="232" dx="0em" dy="0.3em" style="text-anchor: end; visibility: inherit; font-family: Roboto, sans-serif; font-size: 12px; font-weight: 200;" fill="rgb(33, 33, 33)" stroke="none" stroke-width="1px">12</text><text x="0" y="203" dx="0em" dy="0.3em" style="text-anchor: end; visibility: inherit; font-family: Roboto, sans-serif; font-size: 12px; font-weight: 200;" fill="rgb(33, 33, 33)" stroke="none" stroke-width="1px">13</text><text x="0" y="174" dx="0em" dy="0.3em" style="text-anchor: end; visibility: inherit; font-family: Roboto, sans-serif; font-size: 12px; font-weight: 200;" fill="rgb(33, 33, 33)" stroke="none" stroke-width="1px">14</text><text x="0" y="145" dx="0em" dy="0.3em" style="text-anchor: end; visibility: inherit; font-family: Roboto, sans-serif; font-size: 12px; font-weight: 200;" fill="rgb(33, 33, 33)" stroke="none" stroke-width="1px">15</text><text x="0" y="116" dx="0em" dy="0.3em" style="text-anchor: end; visibility: inherit; font-family: Roboto, sans-serif; font-size: 12px; font-weight: 200;" fill="rgb(33, 33, 33)" stroke="none" stroke-width="1px">16</text><text x="0" y="86.99999999999999" dx="0em" dy="0.3em" style="text-anchor: end; visibility: inherit; font-family: Roboto, sans-serif; font-size: 12px; font-weight: 200;" fill="rgb(33, 33, 33)" stroke="none" stroke-width="1px">17</text><text x="0" y="58" dx="0em" dy="0.3em" style="text-anchor: end; visibility: inherit; font-family: Roboto, sans-serif; font-size: 12px; font-weight: 200;" fill="rgb(33, 33, 33)" stroke="none" stroke-width="1px">18</text><text x="0" y="28.999999999999982" dx="0em" dy="0.3em" style="text-anchor: end; visibility: inherit; font-family: Roboto, sans-serif; font-size: 12px; font-weight: 200;" fill="rgb(33, 33, 33)" stroke="none" stroke-width="1px">19</text><text x="0" y="0" dx="0em" dy="0.3em" style="text-anchor: end; visibility: hidden; font-family: Roboto, sans-serif; font-size: 12px; font-weight: 200;" fill="rgb(33, 33, 33)" stroke="none" stroke-width="1px">20</text></g><line x1="30.78125" y1="0" x2="30.78125" y2="377" fill="rgb(0, 0, 0)" stroke="rgb(204, 204, 204)" stroke-width="1px"></line></g></g><g transform="translate(30, 0)" clip-path="url(#clip_0)"><clipPath id="clip_0"><rect width="1467" height="377"></rect></clipPath><g><g><g><line x1="0" y1="0" x2="0" y2="377" fill="rgb(0, 0, 0)" stroke="rgb(66, 66, 66)" stroke-width="1px" opacity="0.25"></line><line x1="133.38352272727272" y1="0" x2="133.38352272727272" y2="377" fill="rgb(0, 0, 0)" stroke="rgb(66, 66, 66)" stroke-width="1px" opacity="0.25"></line><line x1="266.76704545454544" y1="0" x2="266.76704545454544" y2="377" fill="rgb(0, 0, 0)" stroke="rgb(66, 66, 66)" stroke-width="1px" opacity="0.25"></line><line x1="400.15056818181813" y1="0" x2="400.15056818181813" y2="377" fill="rgb(0, 0, 0)" stroke="rgb(66, 66, 66)" stroke-width="1px" opacity="0.25"></line><line x1="533.5340909090909" y1="0" x2="533.5340909090909" y2="377" fill="rgb(0, 0, 0)" stroke="rgb(66, 66, 66)" stroke-width="1px" opacity="0.25"></line><line x1="666.9176136363636" y1="0" x2="666.9176136363636" y2="377" fill="rgb(0, 0, 0)" stroke="rgb(66, 66, 66)" stroke-width="1px" opacity="0.25"></line><line x1="800.3011363636363" y1="0" x2="800.3011363636363" y2="377" fill="rgb(0, 0, 0)" stroke="rgb(66, 66, 66)" stroke-width="1px" opacity="0.25"></line><line x1="933.6846590909091" y1="0" x2="933.6846590909091" y2="377" fill="rgb(0, 0, 0)" stroke="rgb(66, 66, 66)" stroke-width="1px" opacity="0.25"></line><line x1="1067.0681818181818" y1="0" x2="1067.0681818181818" y2="377" fill="rgb(0, 0, 0)" stroke="rgb(66, 66, 66)" stroke-width="1px" opacity="0.25"></line><line x1="1200.4517045454547" y1="0" x2="1200.4517045454547" y2="377" fill="rgb(0, 0, 0)" stroke="rgb(66, 66, 66)" stroke-width="1px" opacity="0.25"></line><line x1="1333.8352272727273" y1="0" x2="1333.8352272727273" y2="377" fill="rgb(0, 0, 0)" stroke="rgb(66, 66, 66)" stroke-width="1px" opacity="0.25"></line><line x1="1467.21875" y1="0" x2="1467.21875" y2="377" fill="rgb(0, 0, 0)" stroke="rgb(66, 66, 66)" stroke-width="1px" opacity="0.25"></line></g><g><line x1="0" y1="377" x2="1467.21875" y2="377" fill="rgb(0, 0, 0)" stroke="rgb(66, 66, 66)" stroke-width="1px" opacity="0.25"></line><line x1="0" y1="348" x2="1467.21875" y2="348" fill="rgb(0, 0, 0)" stroke="rgb(66, 66, 66)" stroke-width="1px" opacity="0.25"></line><line x1="0" y1="319" x2="1467.21875" y2="319" fill="rgb(0, 0, 0)" stroke="rgb(66, 66, 66)" stroke-width="1px" opacity="0.25"></line><line x1="0" y1="290" x2="1467.21875" y2="290" fill="rgb(0, 0, 0)" stroke="rgb(66, 66, 66)" stroke-width="1px" opacity="0.25"></line><line x1="0" y1="261" x2="1467.21875" y2="261" fill="rgb(0, 0, 0)" stroke="rgb(66, 66, 66)" stroke-width="1px" opacity="0.25"></line><line x1="0" y1="232" x2="1467.21875" y2="232" fill="rgb(0, 0, 0)" stroke="rgb(66, 66, 66)" stroke-width="1px" opacity="0.25"></line><line x1="0" y1="203" x2="1467.21875" y2="203" fill="rgb(0, 0, 0)" stroke="rgb(66, 66, 66)" stroke-width="1px" opacity="0.25"></line><line x1="0" y1="174" x2="1467.21875" y2="174" fill="rgb(0, 0, 0)" stroke="rgb(66, 66, 66)" stroke-width="1px" opacity="0.25"></line><line x1="0" y1="145" x2="1467.21875" y2="145" fill="rgb(0, 0, 0)" stroke="rgb(66, 66, 66)" stroke-width="1px" opacity="0.25"></line><line x1="0" y1="116" x2="1467.21875" y2="116" fill="rgb(0, 0, 0)" stroke="rgb(66, 66, 66)" stroke-width="1px" opacity="0.25"></line><line x1="0" y1="86.99999999999999" x2="1467.21875" y2="86.99999999999999" fill="rgb(0, 0, 0)" stroke="rgb(66, 66, 66)" stroke-width="1px" opacity="0.25"></line><line x1="0" y1="58" x2="1467.21875" y2="58" fill="rgb(0, 0, 0)" stroke="rgb(66, 66, 66)" stroke-width="1px" opacity="0.25"></line><line x1="0" y1="28.999999999999982" x2="1467.21875" y2="28.999999999999982" fill="rgb(0, 0, 0)" stroke="rgb(66, 66, 66)" stroke-width="1px" opacity="0.25"></line><line x1="0" y1="0" x2="1467.21875" y2="0" fill="rgb(0, 0, 0)" stroke="rgb(66, 66, 66)" stroke-width="1px" opacity="0.25"></line></g></g></g><g><g><line x1="0" y1="580" x2="1467.21875" y2="580" fill="rgb(0, 0, 0)" stroke="rgb(153, 153, 153)" stroke-width="1.5px"></line></g></g><g><g><line x1="133.38352272727272" y1="0" x2="133.38352272727272" y2="377" fill="rgb(0, 0, 0)" stroke="rgb(153, 153, 153)" stroke-width="1.5px"></line></g></g><g><g><g><g><g><path stroke="rgb(255, 112, 67)" stroke-width="2px" d="M178.73392045454545,-6.827640215735358L180.86805681818183,4.346704235590982L181.4015909090909,9.143796347703796L186.20339772727274,7.855126512879236L186.7369318181818,18.923926991855055L188.33753409090912,23.02503581903942L189.93813636363637,18.610178933255067L190.47167045454543,20.359937468092454L191.53873863636363,16.670038993228292L195.27347727272726,26.87328552669237L197.94114772727275,20.651281090650116L200.07528409090907,8.582715063365855L200.60881818181818,10.755796125406063L201.67588636363638,16.272445193881317L202.74295454545455,15.569736523266267L203.27648863636364,20.132250532413423L203.81002272727272,21.31748177431355L205.94415909090907,16.995324809829125L206.47769318181818,23.434634735971745L210.2124318181818,29.01854413881996L211.27949999999998,31.445807865329282L211.8130340909091,13.44412048502636L213.41363636363636,13.28795132306439L217.148375,10.348669995880362L218.2154431818182,17.47533319210412L218.74897727272725,23.55967260829298L219.81604545454547,29.8961969210085L220.88311363636362,36.62047139221585L224.0843181818182,39.17131863322241L224.61785227272725,45.996537341645954L225.15138636363636,51.74255279063001L226.75198863636362,57.89148617037727L227.28552272727273,53.809342512877095L227.81905681818185,58.08539320169477L228.3525909090909,62.41418408560368L229.4196590909091,64.96934717075499L229.95319318181816,69.99564316564663L231.55379545454548,73.94828173196424L232.08732954545454,79.67806866246191L232.62086363636362,84.8884598127415L234.755,87.54780982864726L235.2885340909091,84.3325711665077L235.82206818181817,89.07001437348835L237.42267045454543,92.46709798087939L239.5568068181818,93.45678720876913L240.0903409090909,96.43876617259936L241.15740909090908,99.83463094988481L241.69094318181817,96.56248658981337L242.22447727272728,100.54498138184918L242.75801136363637,103.09442996874331L243.82507954545454,107.84877424746898L244.89214772727271,108.63099353461111L245.95921590909091,112.30748313693223L247.0262840909091,115.85838821854793L248.0933522727273,115.4891509109635L248.62688636363634,119.65542877990721L250.22748863636366,115.09640334455267L250.76102272727272,118.5866257275547L251.2945568181818,121.17139309010985L251.82809090909092,123.3123165607692L252.8951590909091,125.4352820950686L253.42869318181818,128.75555648082315L255.56282954545455,131.51277089123212L258.7640340909091,134.12714393110474L259.83110227272726,136.55638036262513L260.36463636363635,137.77459823054488L260.89817045454544,141.30872741628738L261.9652386363636,143.56990440620118L262.49877272727275,146.77218757443305L263.5658409090909,148.59159438506993L264.099375,145.2316701908949L264.6329090909091,148.57411668254377L265.1664431818182,145.4281387049139L267.8341136363636,148.3107063122837L268.36764772727275,146.49602442434468L268.90118181818184,142.05544306105116L271.0353181818182,144.7066711005655L271.56885227272727,145.71550541860427L272.10238636363636,143.78799495270624L273.1694545454545,140.56081155178035L277.4377272727273,142.5676837936103L277.97126136363636,143.95197792257665L279.5718636363636,146.2455216279197L280.6389318181818,149.41967915455712L281.706,151.12034791516658L282.7730681818182,152.1664201996525L283.84013636363636,154.60346375870836L284.37367045454545,156.52347922852815L285.4407386363636,153.46680901759603L286.5078068181818,153.43388714678912L287.04134090909093,155.63028242930943L288.10840909090905,154.61343762049142L290.77607954545454,155.9086244328747L291.3096136363636,157.63281819182825L291.8431477272727,160.23400748558234L292.3766818181818,162.79158458187624L296.64495454545454,164.46993881015413L297.7120227272727,166.8447846795271L298.2455568181818,168.8175926140031L299.8461590909091,166.04439485047186L301.98029545454546,167.49875269167597L303.0473636363636,168.0269910175607L303.5808977272727,169.67958117274907L305.18149999999997,171.02475122165356L306.2485681818182,169.4340074136516L308.91623863636363,169.14528981157474L309.4497727272727,171.1747125515086L309.9833068181818,173.58007597316035L310.51684090909094,174.74426154225577L313.1845113636364,170.12908075411514L313.71804545454546,172.4881798837439L314.78511363636363,174.59293769296158L316.3857159090909,176.46327930302039L316.91925,178.14736697861463L317.4527840909091,179.85403761187743L317.9863181818182,180.97009256427998L320.12045454545455,180.72451684660314L321.1875227272727,181.99025335943776L321.72105681818186,183.12738127737106L322.2545909090909,185.25348617633367L324.3887272727273,187.20520869117686L326.52286363636364,184.45771196563285L327.0563977272727,183.8182536947685L327.5899318181818,184.83554505807277L328.1234659090909,186.54973000056083L328.657,187.85257836198613L329.1905340909091,189.6802526575162L329.72406818181815,191.74671742185024L332.9252727272727,192.55696634567522L334.525875,192.1995745505004L335.05940909090907,193.72191920968845L339.3276818181818,194.42477410163406L341.46181818181816,195.8244430991395L341.9953522727273,197.51448941330838L342.52888636363633,197.25060999174477L343.0624204545455,198.12989951258223L343.59595454545456,199.41891441014627L345.1965568181818,201.12562239716183L347.33069318181816,200.08345046099754L347.8642272727273,201.61064985846932L348.9312954545455,203.16515902660305L351.0654318181818,200.66534611944442L351.5989659090909,197.35856138920835L353.19956818181817,196.24380289266682L353.73310227272725,197.6157563851746L354.26663636363634,198.6546790905776L354.8001704545455,199.85629255102188L356.40077272727274,199.27460647916268L358.001375,201.14038614536216L358.5349090909091,201.04919055132976L360.13551136363634,202.7368862728057L360.6690454545455,203.8313968369749L362.8031818181818,205.46671379472855L363.3367159090909,206.6976580555855L365.47085227272726,208.21372392090757L366.00438636363634,208.76807068450154L366.5379204545455,208.8618506387648L367.60498863636366,210.27544698159446L368.13852272727274,210.27918817460713L368.6720568181818,208.61306368468257L369.739125,210.0797677126846L370.2726590909091,211.82432572175932L370.80619318181823,211.62046808450106L371.33972727272726,212.82997148159095L373.4738636363636,213.78438637500184L374.00739772727275,214.7114223112468L374.5409318181818,212.97885470463982L375.0744659090909,214.44983640040203L375.608,215.92889807844276L376.67506818181823,215.2118424547118L377.74213636363635,216.71400061523207L378.8092045454545,217.04187533672496L379.3427386363636,218.48115052882704L380.94334090909086,220.08424035018027L381.476875,221.3192230724081L382.0104090909091,222.7466513868655L383.07747727272726,224.17046926779483L384.1445454545455,225.38895370374652L386.27868181818184,226.47930588896227L386.81221590909087,227.3577211601905L388.4128181818181,228.16813828963947L388.94635227272727,228.37872065014338L389.47988636363635,228.61953251156612L390.0134204545455,229.76685080781024L390.5469545454545,231.04227083642752L391.0804886363636,231.86828293652488L391.61402272727275,232.46307520030655L392.68109090909087,232.40271981163852L393.214625,233.53638364802308L393.7481590909091,232.5820328279438L394.2816931818181,233.6365287051157L395.34876136363636,233.02102479103402L396.9493636363636,234.41550378660415L399.0835,234.7257267411645L400.6841022727273,234.5196008649291L401.21763636363636,234.44193192851785L401.75117045454544,235.80416795682746L403.35177272727276,236.00448281774007L404.952375,234.63907798625732L405.4859090909091,233.4632351134911L406.01944318181813,234.70112862064644L406.5529772727273,235.68823788537676L407.08651136363636,236.918247830142L407.62004545454545,238.05885659131172L409.2206477272727,238.8694746326532L409.75418181818185,239.78619491682363L410.2877159090909,240.57607898154666L410.82125,241.52571370344683L412.4218522727273,241.92214859126798L416.1565909090909,240.61310253724685L417.7571931818182,239.8606743671142L418.29072727272734,240.86690684595717L419.35779545454545,241.4331154877587L419.8913295454546,240.41801380066386L420.4248636363636,241.6558501063904L420.9583977272727,242.47826004591843L421.49193181818185,243.1449332683884L422.55899999999997,244.23076100073177L423.0925340909091,240.91714547224666L423.6260681818182,239.5203870351803L424.69313636363637,240.32199905821426L425.22667045454546,241.05771818637572L426.8272727272727,242.0272318080194L427.8943409090909,243.1820622470624L428.9614090909091,243.88892180968872L429.4949431818182,244.9883111808068L430.02847727272723,246.0160655029421L433.22968181818186,247.1102713129494L433.7632159090909,248.30704229112467L434.29675,247.3726457673556L436.4308863636364,247.84258294099016L438.03148863636363,248.3147160370124L439.0985568181818,249.160009942448L440.6991590909091,250.10944857931008L442.83329545454546,250.38115796157194L444.9674318181818,251.28526382004017L445.50096590909095,252.44557143795743L446.0345,253.20671992421387L447.1015681818182,254.31441296063537L448.1686363636364,255.15334199230418L448.70217045454547,256.079858239208L449.2357045454545,256.8365273377842L450.3027727272727,255.9967866960722L451.36984090909095,257.0067332569718L451.903375,257.88013976292007L452.43690909090907,258.3923128521579L452.9704431818182,258.7510701845816L454.0375113636364,257.0191212998447L454.57104545454547,256.214645379792L455.10457954545456,256.8516064505595L456.1716477272727,257.2640699604944L457.77225,256.9292389157453L458.8393181818182,257.00321189602585L460.4399204545455,257.553185187227L460.97345454545456,257.6794292367198L462.04052272727273,258.6596016137767L463.10759090909096,259.50771269440673L464.1746590909091,260.05318515931316L465.24172727272725,259.97061286788806L465.77526136363633,260.80097690297316L467.3758636363636,261.715955958576L468.4429318181818,260.76122911033474L468.97646590909096,261.5907481096186L471.11060227272725,261.67620992786027L473.2447386363636,262.1636946081761L474.84534090909085,260.8701890818908L475.378875,261.7517638447721L475.9124090909091,262.41634210827476L476.4459431818182,263.25985230301893L476.9794772727273,263.73313316749324L477.51301136363634,264.5737362752402L479.64714772727274,265.28555253211374L480.71421590909085,266.2254352122795L481.24775,267.10947058018417L481.7812840909091,266.435665126396L482.31481818181817,267.06751890312995L482.8483522727273,267.2521783584812L484.44895454545457,266.4525718558419L485.51602272727274,266.8540799593948L489.25076136363634,266.9170045320337L490.8513636363636,267.51692980266733L493.5190340909091,267.20723046503616L494.0525681818182,267.49702703187467L494.5861022727273,268.01753783982247L496.1867045454546,267.30791917809796L497.2537727272727,267.906075035144L497.78730681818183,268.22959587219833L498.3208409090909,269.11341243236814L499.9214431818182,269.3883876850646L502.5891136363636,270.20628917286496L503.65618181818184,271.1311384909164L504.72324999999995,271.9508351811742L505.2567840909091,271.15301265927116L506.3238522727273,271.87492301275586L507.9244545454546,272.4403432898531L508.4579886363636,272.86947176735566L509.52505681818184,273.2958103421012L511.6591931818182,273.91450527360104L512.1927272727273,272.89591989419534L513.2597954545454,272.0030680959541L514.8603977272727,271.33381492220724L515.9274659090909,272.00727584608507L517.5280681818182,272.24617349874467L518.0616022727272,273.0523443615783L519.1286704545454,273.75356919857956L520.1957386363637,273.3081731213309L520.7292727272727,274.06188284503435L521.2628068181818,274.7120755541731L521.7963409090909,273.83543005952566L522.329875,273.6576079223537L523.3969431818182,274.03890016360475L523.9304772727272,274.80876288028435L524.4640113636364,275.53494059361526L527.1316818181818,274.60568371594485L529.2658181818182,274.0646752666837L529.7993522727272,274.8454991657639L530.3328863636364,275.1238249526228L536.2017613636364,275.56287250261767L536.7352954545455,276.36840335620616L537.8023636363637,276.9693175914013L540.470034090909,277.53578778666815L541.0035681818182,277.70924224357634L541.5371022727272,278.1971158125878L543.1377045454545,278.8888055327466L543.6712386363637,279.4755870917992L545.2718409090909,279.9226039282273L546.8724431818182,280.3359607396465L547.4059772727272,279.9223795728767L548.4730454545455,280.5906122538665L549.0065795454545,281.2800704845488L549.5401136363637,281.73246850202537L550.0736477272727,281.33427546015037L550.6071818181817,281.7701067424823L553.8083863636364,281.91598820024467L555.4089886363636,282.1642029279485L556.4760568181817,282.7244032314294L557.543125,283.07085116156765L559.6772613636364,283.7734927211157L560.2107954545455,284.29914436571806L562.3449318181819,284.35118589929345L562.8784659090909,284.7855053171467L563.412,285.4557017649154L563.9455340909091,285.7369909802956L565.5461363636364,285.6142237405754L569.8144090909091,286.06533249749964L570.3479431818182,286.5325259757373L571.4150113636364,286.81737896887023L572.4820795454546,287.35706355642515L574.0826818181819,286.46108171821476L574.6162159090909,286.8433004680203L575.14975,287.4236941128136L577.2838863636364,286.62415158302747L577.8174204545455,287.22459498253914L578.8844886363636,287.9143636586258L579.4180227272727,288.5295039596731L579.9515568181819,288.3234472664251L581.018625,288.97516615304426L581.5521590909091,288.8358970163291L583.1527613636364,289.4730057207231L584.2198295454546,289.6579525835277L586.8875,289.63770158364514L587.4210340909091,286.9121610060388L589.0216363636364,287.1568802804401L590.6222386363636,287.6547937076018L592.2228409090909,287.81355993083133L593.2899090909091,288.3541123286913L594.8905113636364,287.28264630880216L595.4240454545454,287.7912779897736L597.5581818181819,286.44041169114206L598.0917159090909,286.84749206165867L603.4270568181819,286.9747424339456L604.4941249999999,285.8999444440344L605.0276590909091,286.32332160880156L605.5611931818182,286.0316900335417L606.0947272727273,286.64114810483454L607.1617954545454,287.3196425974042L608.2288636363636,287.91493711723274L609.2959318181819,286.3327182257687L610.8965340909091,286.93787059919515L611.9636022727273,286.7179093300569L612.4971363636364,286.7329854328877L614.0977386363636,286.27094112643056L614.6312727272727,286.10440318330205L615.6983409090909,286.0388287699878L617.2989431818182,285.3483209575858L617.8324772727273,285.929146914261L618.8995454545454,286.5415303986558L619.4330795454545,286.94612807135627L621.0336818181819,287.0515875485815L623.1678181818182,287.372523903132L623.7013522727273,288.00057083896354L624.7684204545454,288.4788258103551L625.8354886363636,286.7761774512865L627.969625,286.6172809781438L628.5031590909091,287.175157476677L629.5702272727273,287.602061992847L630.1037613636364,288.0733779718623L630.6372954545454,288.066976516944L631.1708295454545,288.3635887923959L632.2378977272728,288.6673163111752L634.3720340909091,288.93447539861114L635.4391022727273,288.9579077145044L635.9726363636364,287.9185731792012L637.5732386363637,287.5063446448137L639.707375,288.115631903486L641.3079772727273,288.47689728642865L642.9085795454546,289.05975650079284L643.4421136363637,288.38679596537196L645.57625,288.67523691857656L646.6433181818182,288.9814404552838L647.1768522727273,289.50044212451087L648.2439204545454,289.90473764338833L649.3109886363636,290.39631643997603L649.8445227272728,290.83173809536504L651.445125,291.3923632244849L654.1127954545454,290.81276005942686L655.1798636363636,291.29908902754386L655.7133977272728,290.7763794306683L656.7804659090908,291.23614127957956L657.314,291.19889656194397L659.4481363636363,291.4120537163027L661.5822727272728,291.7498667472981L662.6493409090908,292.12936155450365L663.7164090909091,292.50842855749204L664.2499431818181,293.0908327992636L664.7834772727273,293.3989130007238L665.8505454545455,293.68062078693976L666.3840795454546,293.0790183376523L667.9846818181818,293.62928711879493L668.5182159090908,292.9889868439324L669.05175,293.29687354749285L669.5852840909091,293.6834571970107L670.1188181818181,293.1551248296367L672.7864886363636,292.8131235607825L673.8535568181818,293.3967836590268L674.920625,293.40781428659756L675.4541590909091,293.8726369572137L675.9876931818181,294.260956734303L678.6553636363636,294.49998528389546L680.7895000000001,294.8575280915617L681.8565681818181,295.02595107341625L682.3901022727273,295.4711207550344L685.5913068181818,296.0179282271825L686.124840909091,296.56497556149725L686.6583750000001,297.1651616160857L687.1919090909091,296.3711074301341L687.7254431818182,296.6848206536766L689.8595795454546,297.1286484379262L690.9266477272727,297.2445797501437L691.4601818181818,297.69276548814867L694.6613863636363,296.9617216895731L695.1949204545455,297.534702286591L696.7955227272727,297.79475513931044L697.862590909091,298.2261631082447L698.396125,298.65440687979583L698.9296590909091,299.17378494444216L699.9967272727272,299.4843989751354L701.5973295454546,300.0117680332875L702.1308636363636,300.5667557210518L702.6643977272727,300.8660082322572L703.731465909091,300.8317127049879L704.265,301.103396625941L704.7985340909091,301.51262430919996L705.3320681818182,302.0256172616562L705.8656022727272,302.025137180533L706.3991363636363,302.31041508959845L707.9997386363636,302.350385831152L708.5332727272727,302.58003593023585L709.600340909091,302.5080253828363L710.133875,302.90683417490146L710.6674090909091,301.9753500511135L712.2680113636363,302.05910720730185L712.8015454545455,302.4450880709528L713.3350795454545,302.8666734767063L715.469215909091,303.11594203617716L719.2039545454545,302.05287476268006L720.2710227272727,302.39856520345967L721.338090909091,302.0030829945644L721.871625,301.6009521598312L722.405159090909,302.1158749687811L724.0057613636365,302.4274531162298L724.5392954545455,302.59893382940857L725.0728295454545,303.00191972677607L726.1398977272727,303.42866050165753L726.6734318181818,303.9193292149883L727.7405,304.3465137144651L730.4081704545455,304.78583802460423L731.4752386363637,305.02093259962123L732.0087727272727,304.7202639919996L733.609375,305.1128934891638L734.142909090909,305.2309584286765L735.2099772727273,305.5406882003567L735.7435113636365,305.85787441174L736.2770454545455,305.83485874634346L736.8105795454545,306.31159818765224L737.3441136363635,306.41545136267865L738.4111818181818,306.313997543047L738.944715909091,306.48883238495335L739.47825,306.5058471186324L741.0788522727273,306.75255570258724L742.6794545454545,307.26381157425794L744.2800568181818,307.0204519670134L744.813590909091,307.06354071613237L745.880659090909,307.57655124200807L746.4141931818182,306.21425968403787L746.9477272727272,306.5917221060982L747.4812613636365,306.30147141702304L748.0147954545455,306.68945832345133L748.5483295454545,306.92273912135335L752.2830681818182,306.6081072427057L753.3501363636365,306.7669126967818L754.4172045454545,306.7360003591946L755.4842727272727,306.91543165144185L756.017806818182,307.41614390831296L759.2190113636365,307.6963707480224L759.7525454545455,308.19782667408543L760.8196136363637,308.1443128457274L761.3531477272727,308.65092498599114L761.8866818181817,309.02203212420085L764.0208181818182,309.37319506828936L765.0878863636365,309.63862471544275L766.1549545454545,309.6391866322475L767.2220227272727,310.1024076605256L767.7555568181817,310.59258622980394L768.289090909091,310.6207410773338L769.8896931818182,311.1004333373328L770.4232272727272,311.3794589411627L770.9567613636365,311.5560002351703L772.0238295454545,311.9574918667774L772.5573636363637,311.96146359691807L774.157965909091,312.32108558382606L774.6915,312.78536306018356L776.2921022727272,312.6175067953161L776.8256363636362,313.0709916827338L777.3591704545455,313.40496106266687L778.4262386363637,313.42300739551007L780.560375,313.7373473907569L781.093909090909,313.92801616395843L781.6274431818182,314.22707905955724L783.2280454545455,314.47056536053014L785.895715909091,314.89604646035724L786.962784090909,315.11782853959465L788.5633863636363,315.21732951065604L789.0969204545455,315.5820071887405L790.6975227272727,315.854220366485L791.2310568181817,316.2796301804822L793.8987272727272,315.64537587824896L794.9657954545455,315.68974998240196L795.4993295454545,316.1437580409529L796.0328636363637,316.54421505906157L796.5663977272727,316.2207359659151L797.0999318181817,316.64786089382534L797.6334659090909,317.08060441797295L798.167,317.027241439214L799.7676022727272,317.44722709450275L800.3011363636363,317.2803908681187L800.8346704545455,316.7248580124021L801.3682045454545,317.167511634591L802.4352727272727,317.5430465153355L803.5023409090909,317.9473232757234L804.035875,317.25033810182964L805.6364772727272,316.72330012161507L806.1700113636363,316.7379628326506L807.7706136363637,315.83213024791644L809.3712159090909,315.7659182598122L811.5053522727272,316.17649116406153L814.1730227272727,316.56326671908687L814.7065568181818,316.9181633494388L815.2400909090909,317.2027628317458L817.3742272727272,317.65958631528775L818.9748295454546,317.8344116500607L821.6425,317.9984201641995L823.2431022727272,318.3626262816472L824.8437045454546,318.4600361288963L825.9107727272727,317.4272624729898L826.4443068181818,317.80413238131615L828.0449090909092,318.2354109391223L830.1790454545454,318.38372359150503L832.3131818181818,316.90867291902134L834.9808522727272,317.2855776271845L837.6485227272727,317.5334922051872L838.7155909090909,317.9857084732615L839.2491249999999,318.3695453035648L840.3161931818182,318.08197401386303L840.8497272727273,318.4010368483552L841.9167954545454,318.7361896833718L845.6515340909092,318.9755185089112L850.4533409090909,319.0549612750117L850.9868749999999,319.48390168523696L852.0539431818182,319.79782889174726L852.5874772727273,319.7048983925508L854.1880795454545,318.3498237135265L854.7216136363637,318.5549283020353L855.7886818181818,318.97847379342045L857.9228181818182,319.0091910726718L858.9898863636364,319.36433628309226L861.1240227272727,319.6838129290759L861.6575568181818,319.47645159226875L862.1910909090909,319.8816399793616L862.724625,320.05892199231556L863.258159090909,320.2965159554294L865.3922954545454,319.9646875752879L865.9258295454545,319.7892231527618L866.9928977272727,320.17687720344344L867.5264318181818,320.60525080700364L869.6605681818182,320.4672711212565L872.3282386363637,320.90374077257485L872.8617727272728,321.2165697458651L874.995909090909,320.98236342054633L876.5965113636364,321.3072534368619L878.7306477272728,320.74782416448073L881.9318522727273,321.0716273610207L888.8677954545454,321.5020575942452L889.4013295454545,321.761210032768L891.5354659090909,321.9395550617824L896.8708068181819,322.20323588375163L897.4043409090909,322.5562427255736L899.5384772727273,322.8749906103854L900.6055454545454,322.6891876664687L901.1390795454545,322.9644531866482L901.6726136363636,322.601454985024L902.2061477272728,322.6012934650208L903.80675,322.9439331146103L904.8738181818181,323.36410860944824L905.4073522727273,323.7808039317949L906.4744204545455,323.9257709325314L907.5414886363636,324.13012262469226L908.0750227272728,324.54531981455636L909.1420909090909,324.3195769707259L909.675625,324.5541798313159L910.2091590909091,324.96139110142224L910.7426931818181,325.1370658378761L911.2762272727274,325.4991123250901L911.8097613636364,325.5166611526484L912.3432954545455,325.73845803876446L912.8768295454545,324.89561743915823L913.9438977272727,324.423463494928L917.6786363636364,324.72520070059124L919.2792386363636,325.1123483468964L919.8127727272727,325.46076159187646L920.879840909091,325.72182103943646L923.5475113636364,326.0669630046054L924.0810454545455,326.2976915013099L924.6145795454545,326.5460064036682L926.748715909091,326.582921314446L927.8157840909091,326.98084615985056L928.3493181818181,327.2532438119986L929.9499204545455,327.31225282941426L930.4834545454545,327.61104262848346L932.617590909091,327.90835219306535L933.151125,328.2216847090769L933.6846590909091,328.4950998303092L934.7517272727272,328.72384940912974L938.486465909091,328.95741910516114L939.02,329.24924696251867L939.5535340909091,329.6181002422088L940.6206022727272,329.83773660845065L941.6876704545455,329.1436172279898L942.2212045454545,329.42521968788236L945.9559431818182,329.1018039868078L947.5565454545455,329.3341026340283L948.6236136363636,329.2209254575785L951.8248181818182,329.4694103213267L953.4254204545455,329.7799402417401L953.9589545454546,329.31128778580853L955.5595568181817,329.67219846360683L959.2942954545455,329.9403616719652L960.8948977272727,329.93813061683693L961.4284318181817,330.28013472238086L961.961965909091,330.60208802529036L963.0290340909091,330.914244516466L964.0961022727272,331.20889467667365L966.7637727272727,331.5369458272385L967.830840909091,331.7083697421369L968.364375,332.01933484810877L968.8979090909091,331.9637763171171L969.9649772727272,332.0950190234515L971.0320454545455,332.218793729095L971.5655795454546,332.5828754929027L972.0991136363637,332.68655174164076L972.6326477272727,332.44417447714505L974.23325,332.2114793279101L975.3003181818182,332.17122215909967L976.3673863636363,332.532400803216L976.9009204545455,332.83350289250524L977.4344545454546,332.5343065067512L979.0350568181817,332.90700533521357L981.7027272727272,333.07569049908L984.3703977272727,333.3675349343938L984.9039318181818,333.58797146036636L985.4374659090909,332.3767383884475L987.5716022727272,332.60289637782444L988.1051363636363,332.77682742207907L988.6386704545455,333.04392701542025L992.3734090909091,333.3138586838399L992.9069431818182,333.4856374335232L993.9740113636364,333.80056224174217L994.5075454545454,334.1463309050256L995.5746136363637,334.34879569261574L998.7758181818182,334.6378331974383L999.8428863636364,334.6313559800093L1000.9099545454546,334.37766131458227L1001.4434886363637,334.53499564970065L1003.5776250000001,334.79865668170663L1005.7117613636364,335.0498990253158L1006.2452954545454,335.2891762147519L1006.7788295454546,335.4706618226374L1008.3794318181818,334.9638739393675L1008.9129659090909,334.687130556282L1011.5806363636364,334.92595149957987L1012.1141704545454,335.164334130871L1013.1812386363637,335.5082074024185L1014.2483068181818,335.5177618025082L1014.7818409090909,335.7872053558807L1015.3153749999999,336.0963285079603L1015.8489090909092,336.2071311379825L1016.9159772727272,336.38293223439723L1017.9830454545454,336.3949279334433L1020.1171818181818,336.564596648708L1021.1842499999999,336.8808408950168L1022.2513181818182,336.9813702186197L1023.8519204545454,337.17818026389483L1024.3854545454546,337.44572792797794L1026.5195909090908,337.64748430922504L1028.1201931818182,337.9070835292558L1029.1872613636363,338.2393179713747L1029.7207954545454,338.2287887391204L1030.7878636363637,338.5399696911762L1032.3884659090909,338.72553127434065L1032.922,339.0501747963783L1033.4555340909092,339.2862573409976L1033.9890681818183,338.27886563175065L1036.6567386363638,338.38638639821545L1037.1902727272727,338.5812714813946L1037.7238068181819,338.7999813391098L1038.790875,339.08603919915174L1039.8579431818182,339.0182473933842L1040.3914772727273,339.32150214290783L1041.4585454545454,339.4726467092835L1042.5256136363637,339.76396100244216L1044.126215909091,339.9565749635133L1045.193284090909,339.91059570033104L1045.7268181818183,340.02667809063377L1046.2603522727272,340.0465018751689L1046.7938863636364,340.14514782953916L1049.995090909091,339.9019839696853L1050.528625,340.21789065209344L1052.1292272727273,340.3990703314848L1052.6627613636363,340.35242216631485L1053.1962954545454,340.61706875115755L1053.7298295454545,340.7594521081082L1056.3975,340.87962689428804L1060.6657727272727,340.94889711948616L1061.1993068181819,341.2774772765361L1063.3334431818182,341.5061920057964L1064.4005113636363,341.8240322392922L1066.0011136363635,342.0568087497302L1066.5346477272728,341.86071011157543L1067.0681818181818,341.2779964422661L1067.601715909091,341.3600578314596L1068.668784090909,341.5327744460957L1069.2023181818183,341.4864570876418L1070.8029204545455,341.69265993924716L1073.470590909091,341.78239051106266L1074.004125,342.1208854089827L1075.0711931818182,342.1015872077984L1076.6717954545454,341.8128049212092L1080.406534090909,341.85238510242067L1080.940068181818,342.0330744848085L1081.4736022727272,342.3309656625611L1083.0742045454544,342.60006074388014L1085.208340909091,342.8440957790292L1085.741875,343.1684920941355L1086.275409090909,343.4606256884203L1087.8760113636365,343.569432434156L1088.4095454545454,343.72818846402663L1089.4766136363635,344.0635295503614L1090.5436818181818,344.1146430595125L1091.61075,344.1981425847399L1093.7448863636364,343.9561123572547L1094.8119545454545,344.0189566275012L1095.3454886363636,344.2878679149343L1095.8790227272727,344.4918497374179L1098.013159090909,344.26950123348684L1099.0802272727274,344.57344152845667L1101.2143636363635,344.32206847758766L1102.2814318181818,344.41515382153153L1103.3485,344.5029750489349L1103.882034090909,344.79839802918394L1106.0161704545455,344.7271921443385L1107.6167727272727,344.54654509459004L1108.150306818182,343.7731718529154L1109.217375,343.55640607272284L1109.750909090909,343.609083273013L1110.8179772727271,343.7646689764389L1111.3515113636365,343.87522982678513L1111.8850454545454,344.1674413652665L1112.9521136363635,343.96349512901764L1113.4856477272726,344.17798186544053L1114.0191818181818,343.9705901024603L1117.2203863636364,344.3046137267451L1117.7539204545456,344.4476263711415L1118.2874545454545,344.25582935432857L1118.8209886363636,344.55482539448474L1119.3545227272728,344.84294990276976L1120.955125,344.9429893157313L1122.0221931818182,344.7457649920066L1125.7569318181818,344.385331179264L1127.8910681818181,344.5270980153634L1128.4246022727273,344.77206928820345L1128.9581363636364,344.96553830616887L1129.4916704545456,345.21314806598093L1131.6258068181817,345.5257202444682L1132.159340909091,345.2877757391971L1132.692875,345.558877940004L1133.226409090909,345.77841184491626L1133.7599431818182,345.78875054659113L1134.8270113636365,345.9483594611852L1136.4276136363637,346.21110092635416L1138.028215909091,346.146859665413L1138.56175,346.4478148225948L1139.6288181818181,346.6586717422509L1140.6958863636364,346.2989467195855L1141.7629545454545,346.4266061560612L1144.430625,346.7183883868667L1146.5647613636363,347.00459058360303L1148.1653636363637,347.20444184971456L1150.2995,346.4836742930102L1151.3665681818181,346.1155107366896L1151.9001022727273,346.24706442893955L1152.4336363636362,346.1931568591056L1154.0342386363636,345.89389154462395L1155.634840909091,346.17759833685164L1156.701909090909,346.22283996138526L1159.9031136363637,346.41116826431113L1160.4366477272727,346.54215717665096L1160.9701818181818,346.79922174028513L1162.5707840909092,346.6158216558255L1164.1713863636362,346.8131822805685L1165.7719886363636,347.0425269295083L1166.3055227272728,347.3231109632071L1167.906125,346.5044194747584L1168.4396590909091,346.7448978742413L1168.9731931818183,347.0596840782044L1169.5067272727272,346.89827282873966L1171.1073295454546,346.5290865192277L1172.1743977272727,346.82606994914784L1173.775,347.0519299462389L1174.3085340909092,346.893989093715L1175.3756022727273,346.4826945867488L1176.9762045454545,346.782329422584L1179.1103409090908,346.5220073735744L1179.643875,346.46356309815224L1180.1774090909091,346.6445609742047L1180.7109431818183,346.81806509829545L1181.2444772727272,346.60535990082064L1182.3115454545455,346.7705920645587L1182.8450795454546,347.01941975791084L1183.3786136363638,346.47318713582797L1183.9121477272727,346.2907149793085L1187.1133522727273,346.34336428696037L1188.1804204545454,346.6030338478831L1189.2474886363636,346.55445553318134L1189.7810227272728,346.36474675568877L1190.3145568181817,346.1342953767296L1190.8480909090908,346.28187997719675L1191.381625,346.4892406154014L1192.4486931818183,346.74236578230193L1193.5157613636363,346.4143258714596L1194.0492954545455,346.515319643424L1195.6498977272727,346.7179732284755L1196.1834318181818,346.80358562321953L1196.716965909091,347.11750717377356L1197.7840340909092,346.6209999677952L1201.5187727272728,346.7041885306645L1208.9882499999999,346.5943405151899L1209.5217840909093,346.56983686186766L1211.6559204545454,346.72810852781566L1212.1894545454545,346.5663182735858L1212.7229886363637,346.28602909881613L1213.7900568181817,346.56978841434403L1214.3235909090909,346.8524494992579L1215.3906590909091,346.4049368432224L1216.9912613636363,346.6008059401L1217.5247954545455,346.8123509951373L1218.5918636363638,346.85751090977783L1219.1253977272727,347.1486946395588L1219.6589318181818,347.0625723020929L1221.7930681818182,347.3092232658507L1222.3266022727273,347.2285787049278L1223.3936704545454,347.31487346109344L1223.9272045454545,347.22824558634585L1225.5278068181817,347.178401391264L1226.0613409090909,347.44982664009103L1226.594875,347.6691049325245L1229.2625454545455,347.9037928675247L1229.7960795454544,348.08349809658387L1230.3296136363638,348.2635150308163L1230.8631477272727,348.55272210187843L1236.1984886363637,348.82239838006L1236.7320227272728,348.787611944391L1237.7990909090909,348.9449959634564L1239.9332272727272,349.09571655351596L1242.0673636363638,348.81130805184L1242.6008977272727,349.04029331847244L1245.2685681818182,349.02660530077765L1246.3356363636365,349.26294645847446L1246.8691704545454,349.47231384722596L1247.9362386363637,349.39535282443046L1248.4697727272728,349.67422103840096L1249.003306818182,349.89339852243654L1251.1374431818183,350.1427650317851L1251.6709772727272,350.23433389665684L1252.2045113636364,350.28223304723355L1252.7380454545455,350.5689815566245L1253.8051136363636,350.72294985293104L1254.3386477272727,350.02094246738494L1255.405715909091,350.14229002676274L1255.93925,349.80174489038194L1256.472784090909,349.4459495072329L1257.0063181818182,349.63418080676564L1258.6069204545454,349.7653660923333L1259.1404545454545,350.05409242643157L1261.2745909090909,350.17756305115273L1261.808125,350.3951751478171L1263.9422613636364,350.6679314329472L1264.4757954545455,350.81317914033536L1265.5428636363636,351.0436384763622L1266.0763977272727,351.291262760818L1266.6099318181818,351.573939827353L1267.677,351.68785872492003L1268.210534090909,351.7320239375745L1270.3446704545454,351.9720787056257L1271.9452727272728,352.23173531559877L1272.478806818182,352.2126268101L1273.0123409090909,352.0363880136577L1274.612943181818,352.10277589451715L1276.7470795454544,352.2269188840507L1279.948284090909,352.1159507499406L1280.4818181818182,351.96813575788053L1282.6159545454545,352.17851814138504L1283.1494886363637,352.3217480785304L1285.283625,352.48752147367907L1285.8171590909092,352.14336902225585L1286.350693181818,352.21629094582534L1286.8842272727275,352.42641842625636L1290.618965909091,352.630983253352L1292.7531022727271,352.81877373997094L1293.8201704545454,352.2769376293504L1294.3537045454545,352.3482788629373L1298.088443181818,351.90041865080804L1299.1555113636364,352.12223466069213L1300.2225795454544,351.6973724025861L1301.2896477272727,351.15555164586686L1303.9573181818182,351.39085080304017L1306.6249886363637,351.5448512305826L1307.692056818182,351.72204421805185L1308.225590909091,351.68869056790487L1308.759125,351.9111643341132L1310.3597272727272,351.9959415841975L1311.9603295454544,352.18814130485305L1313.0273977272727,352.02961949477293L1313.5609318181816,352.22915040179413" style="fill: none;" fill="none"></path></g></g></g></g><g opacity="0.2"><g><g><g><path stroke="rgb(255, 112, 67)" stroke-width="2px" d="M138.71886363636364,-180.16287612915036L140.853,373.46264362335205L141.3865340909091,264.19828701019287L142.98713636363638,-472.20780181884766L143.52067045454547,-74.52910614013669L144.05420454545452,160.66721725463867L145.12127272727272,-314.83486747741705L145.6548068181818,162.31289291381836L147.2554090909091,-290.6143627166748L147.78894318181818,14.903398513793936L150.99014772727273,65.88012695312501L152.59074999999999,-36.207906723022475L153.1242840909091,-87.20416069030759L153.6578181818182,297.27060413360596L154.72488636363636,-493.08330154418945L158.459625,-382.54447555542L158.9931590909091,282.8026580810547L159.5266931818182,295.0788221359253L160.59376136363636,403.90284490585327L163.7949659090909,-380.9777870178223L165.3955681818182,79.0793285369873L165.92910227272728,-592.6429176330566L166.46263636363636,370.6620440483093L166.99617045454545,367.6906099319458L168.06323863636365,365.7905077934265L168.5967727272727,194.35992622375488L169.13030681818182,387.2632784843445L169.6638409090909,369.0632047653198L170.73090909090908,488.92682552337646L171.26444318181817,335.3199396133423L174.46564772727274,244.08785057067874L175.5327159090909,238.7663974761963L176.06625,384.7535705566406L177.13331818181817,393.88034439086914L178.73392045454545,172.34138107299808L180.86805681818183,420.7928137779236L181.4015909090909,192.53561687469482L186.20339772727274,-42.64856529235836L186.7369318181818,463.3403496742249L188.33753409090912,191.61841487884521L189.93813636363637,-167.11008834838867L190.47167045454543,95.64162254333496L191.53873863636363,-145.61176300048828L200.07528409090907,-556.7356376647949L200.60881818181818,114.61684036254881L201.67588636363638,285.18468952178955L202.74295454545455,-19.351955413818335L203.27648863636364,251.20139312744138L203.81002272727272,82.4676990509033L205.94415909090907,-210.0946807861328L206.47769318181818,367.8563003540039L210.2124318181818,332.96675395965576L211.27949999999998,165.8614501953125L211.8130340909091,-1000.4299736022949L213.41363636363636,4.345121383666996L217.148375,-160.73359298706052L220.88311363636362,453.2767653465271L224.0843181818182,199.61973285675052L224.61785227272725,481.69220948219294L227.28552272727273,-218.2199554443359L227.81905681818185,347.02325344085693L228.3525909090909,358.9477229118347L229.4196590909091,242.38229846954346L229.95319318181816,423.6593465805054L231.55379545454548,355.7371287345886L232.08732954545454,493.47775316238403L232.62086363636362,466.0067734718322L234.755,284.5303077697754L235.2885340909091,-156.79939270019528L235.82206818181817,448.73955535888666L237.42267045454543,353.5115089416504L239.5568068181818,170.42079925537107L240.0903409090909,331.08195972442627L241.15740909090908,370.17054557800293L241.69094318181817,-166.93275451660156L242.22447727272728,424.9002685546875L242.75801136363637,313.07416820526123L243.82507954545454,503.78791642189026L244.89214772727271,174.49007415771484L245.95921590909091,425.2133960723877L247.0262840909091,421.32094335556025L248.0933522727273,83.38882827758788L248.62688636363634,485.65834617614746L250.76102272727272,431.5558738708496L251.2945568181818,355.2986340522766L251.82809090909092,319.1812057495117L252.8951590909091,321.587851524353L253.42869318181818,438.54431200027466L258.7640340909091,382.7870788574219L259.83110227272726,369.8032388687134L260.36463636363635,255.84368419647217L260.89817045454544,487.02288603782654L261.9652386363636,366.7995710372925L262.49877272727275,465.7934100627899L263.5658409090909,331.48278617858887L264.099375,-195.5348873138428L271.0353181818182,427.8390955924988L271.56885227272727,254.35197257995605L272.10238636363636,-65.49426269531249L273.1694545454545,-212.7088890075684L277.4377272727273,364.0389075279236L277.97126136363636,297.9478578567505L279.5718636363636,403.42702770233154L280.6389318181818,508.16194581985474L281.706,344.836145401001L282.7730681818182,272.24584674835205L283.84013636363636,436.5083885192871L285.4407386363636,-205.51077270507812L286.5078068181818,149.53849601745603L287.04134090909093,417.44711732864386L288.10840909090905,32.50790214538573L290.77607954545454,312.57659912109375L291.3096136363636,367.7081027030945L291.8431477272727,479.4438421726226L292.3766818181818,478.8906280994416L296.64495454545454,373.3722896575928L297.7120227272727,464.51533150672907L299.8461590909091,-186.40003776550293L301.98029545454546,353.60049390792847L303.0473636363636,236.08125019073486L303.5808977272727,384.02491712570185L305.18149999999997,346.6662349700928L306.2485681818182,-39.65396881103518L308.91623863636363,130.94565773010254L309.4497727272727,441.44234561920166L309.9833068181818,495.9960968494415L310.51684090909094,331.799204826355L313.1845113636364,-456.4717750549316L317.4527840909091,418.91941404342657L317.9863181818182,338.262375831604L320.12045454545455,145.90334606170654L321.1875227272727,362.5491318702698L321.72105681818186,346.31386280059814L322.2545909090909,492.18453264236456L326.52286363636364,-216.87324714660645L327.0563977272727,89.86621475219725L327.5899318181818,335.16730308532715L328.1234659090909,441.3251371383667L329.72406818181815,504.14719581604004L332.9252727272727,315.7343416213989L334.525875,137.56470108032227L335.05940909090907,427.7325072288513L339.3276818181818,303.0597848892212L341.46181818181816,413.3427186012268L341.9953522727273,461.5851263999939L342.52888636363633,155.79692554473874L343.0624204545455,337.0006561279297L343.59595454545456,404.08387088775635L345.1965568181818,473.5443394184113L347.33069318181816,32.86085510253907L347.8642272727273,447.93936824798584L351.5989659090909,-344.3093433380127L353.19956818181817,12.709735870361316L353.73310227272725,424.63916301727295L354.26663636363634,371.43592977523804L354.8001704545455,400.69490575790405L356.40077272727274,101.5672607421875L358.001375,516.0908381938934L358.5349090909091,185.57932949066162L360.13551136363634,490.4269516468048L365.47085227272726,471.6641430854797L366.00438636363634,305.5557060241699L366.5379204545455,225.31292152404788L367.60498863636366,459.41560792922974L368.13852272727274,210.94163513183594L368.6720568181818,-87.77432823181152L370.2726590909091,525.0277947187424L370.80619318181823,174.8545045852661L371.33972727272726,431.9554834365845L375.608,489.92625737190247L376.67506818181823,81.79321098327635L377.74213636363635,497.43353939056396L378.8092045454545,278.58055305480957L379.3427386363636,489.785845041275L388.4128181818181,386.16889476776123L388.94635227272727,269.6036500930786L389.47988636363635,275.95580768585205L390.0134204545455,456.2153158187866L391.0804886363636,396.2235598564148L391.61402272727275,351.28736877441406L392.68109090909087,220.29701805114746L393.214625,461.8246459960938L393.7481590909091,39.64119148254395L394.2816931818181,447.66392278671265L395.34876136363636,107.60435485839844L396.9493636363636,519.6670935153961L399.0835,298.43071365356445L400.6841022727273,192.0275936126709L401.21763636363636,218.36921787261966L401.75117045454544,518.7825884819031L403.35177272727276,277.7745580673218L404.952375,-51.15732574462887L410.82125,447.01850175857544L412.4218522727273,328.017502784729L416.1565909090909,-44.7011241912842L417.7571931818182,75.27688407897949L418.29072727272734,461.7521858215332L419.35779545454545,366.16696882247925L419.8913295454546,16.00407409667968L420.4248636363636,516.273862361908L433.7632159090909,526.7512129545212L434.29675,29.257205963134748L436.4308863636364,357.8994150161743L438.03148863636363,359.2469115257263L439.0985568181818,448.4157524108887L440.6991590909091,474.63924860954285L442.83329545454546,314.84404945373535L444.9674318181818,466.47255134582514L449.2357045454545,440.37849473953247L450.3027727272727,51.66930389404297L451.36984090909095,503.51227736473083L452.43690909090907,384.1753134727478L452.9704431818182,347.1274633407593L454.0375113636364,-170.93327522277832L454.57104545454547,56.8294086456299L455.10457954545456,415.19760227203375L456.1716477272727,360.1103768348694L457.77225,173.18930339813235L458.8393181818182,275.55896377563477L460.4399204545455,395.92269802093506L460.97345454545456,289.5359230041504L462.04052272727273,506.72870016098017L464.1746590909091,398.9186358451843L465.24172727272725,238.88803100585935L465.77526136363633,473.4293019771576L467.3758636363636,496.69111299514776L468.4429318181818,14.869878768920895L468.97646590909096,475.8496723175048L471.11060227272725,283.8136987686157L473.2447386363636,388.7993650436401L481.24775,502.6166059970855L481.7812840909091,86.44017601013184L482.31481818181817,436.3187751770019L482.8483522727273,316.85091972351074L484.44895454545457,51.09764289855957L485.51602272727274,375.2836756706238L489.25076136363634,283.9560194015503L490.8513636363636,430.4044208526611L493.5190340909091,182.89454174041748L494.0525681818182,346.60198879241943L494.5861022727273,410.477831363678L496.1867045454546,72.5753917694092L497.2537727272727,432.48455333709717L497.78730681818183,357.47831630706787L498.3208409090909,513.5683460235596L499.9214431818182,345.6424722671509L502.5891136363636,497.6108939647675L504.72324999999995,501.0359232425689L505.2567840909091,47.607164382934556L506.3238522727273,474.66947722435L512.1927272727273,-16.888586044311484L513.2597954545454,17.351446151733406L514.8603977272727,79.97739219665527L515.9274659090909,465.0470287799835L517.5280681818182,340.89359283447266L518.0616022727272,505.2798562049866L519.1286704545454,476.24860429763794L520.1957386363637,144.37333011627197L520.7292727272727,492.78322792053217L521.2628068181818,463.85436058044434L521.7963409090909,18.19685173034669L522.329875,221.67710781097412L523.3969431818182,385.76669931411743L524.4640113636364,489.34729504585266L527.1316818181818,0.34493255615234697L529.2658181818182,114.01071929931639L529.7993522727272,506.3963928222656L530.3328863636364,357.85598039627075L536.2017613636364,406.3775672912598L540.470034090909,447.5063772201538L541.0035681818182,329.87585735321045L541.5371022727272,425.2662754058838L546.8724431818182,406.0937142372132L547.4059772727272,153.80902767181396L548.4730454545455,484.81867933273315L549.5401136363637,420.62329292297363L550.0736477272727,158.80938816070557L550.6071818181817,416.17765378952026L553.8083863636364,327.0056324005127L555.4089886363636,359.05468463897705L556.4760568181817,456.64602518081665L560.2107954545455,448.5793824195861L562.3449318181819,300.6512861251831L562.8784659090909,421.1179718971253L563.412,496.2889037132263L563.9455340909091,374.4186477661133L565.5461363636364,246.82562828063968L569.8144090909091,428.9023241996765L572.4820795454546,459.34397745132446L574.0826818181819,0.3196544647216636L574.6162159090909,409.1687359809876L575.14975,473.56716299057L577.2838863636364,29.65308189392091L577.8174204545455,480.61253905296326L579.4180227272727,487.4833469390869L579.9515568181819,221.5396547317505L581.018625,500.63968777656555L581.5521590909091,243.51032638549805L583.1527613636364,497.2511236667633L584.2198295454546,350.09849643707275L586.8875,283.00607204437256L587.4210340909091,-607.4555473327637L589.0216363636364,367.6240267753601L590.6222386363636,451.7094407081604L592.2228409090909,340.23083114624023L593.2899090909091,467.1810846328736L598.0917159090909,422.6052722930908L603.4270568181819,329.4963264465332L604.4941249999999,-73.96574211120605L605.0276590909091,428.36038017272944L605.5611931818182,187.9999141693115L606.0947272727273,491.91408610343933L610.8965340909091,492.3610920906067L611.9636022727273,211.90543842315674L612.4971363636364,291.87055110931396L614.0977386363636,128.51345729827884L614.6312727272727,229.13323211669922L615.6983409090909,263.5633201599121L617.2989431818182,48.22490119934081L617.8324772727273,485.76812195777893L619.4330795454545,426.68171024322504L621.0336818181819,323.54297637939453L623.1678181818182,398.6333999633789L625.8354886363636,-306.8195552825928L627.969625,231.1177282333374L628.5031590909091,482.3933999538422L630.1037613636364,453.61294460296637L630.6372954545454,285.81445693969727L631.1708295454545,392.92633152008057L634.3720340909091,383.45953416824347L635.4391022727273,297.26374530792236L635.9726363636364,-81.15467643737796L637.5732386363637,140.85635662078857L639.707375,505.26103591918945L642.9085795454546,497.53512883186335L643.4421136363637,47.25266265869139L645.57625,392.2137327194214L651.445125,494.78140020370483L654.1127954545454,80.16993713378908L655.1798636363636,468.3527476787567L655.7133977272728,100.14604568481444L656.7804659090908,459.201283454895L657.314,277.5686550140381L659.4481363636363,369.5549244880676L661.5822727272728,415.8048987388611L665.8505454545455,398.02022647857666L666.3840795454546,69.8778820037842L667.9846818181818,498.1306297779083L668.5182159090908,54.62672996520995L669.05175,408.10570096969604L669.5852840909091,438.0798754692077L670.1188181818181,95.4823760986328L672.7864886363636,164.64146423339844L673.8535568181818,512.4991505146027L674.920625,297.55552196502686L675.4541590909091,468.94361615180975L680.7895000000001,430.18947410583496L681.8565681818181,358.87949419021606L682.3901022727273,464.5225014686585L689.8595795454546,467.3153848648071L690.9266477272727,341.77005672454834L691.4601818181818,470.10205245018L694.6613863636363,15.2927474975586L695.1949204545455,518.654040813446L702.6643977272727,417.81337308883667L703.731465909091,287.408221244812L704.265,407.6073160171509L705.3320681818182,503.7485196590424L705.8656022727272,301.8360652923584L706.3991363636363,414.83496952056885L707.9997386363636,318.1405448913574L708.5332727272727,393.4403839111328L709.600340909091,273.97382831573486L710.133875,461.1752977371216L710.6674090909091,-68.24780464172365L712.2680113636363,335.3992033004761L712.8015454545455,456.31930446624756L720.2710227272727,441.03958320617676L721.338090909091,143.1563310623169L721.871625,139.8435459136963L722.405159090909,509.55121064186096L724.0057613636365,428.1316604614258L724.5392954545455,371.883855342865L725.0728295454545,466.0637598037719L731.4752386363637,400.8454818725586L732.0087727272727,181.98992347717282L733.609375,465.61284732818604L734.142909090909,353.56348943710327L735.2099772727273,432.51814222335815L735.7435113636365,436.0790205001831L736.2770454545455,296.3722085952759L736.8105795454545,502.59829044342047L737.3441136363635,349.23563957214355L738.4111818181818,264.4235773086548L738.944715909091,378.7808470726013L739.47825,313.5511884689331L741.0788522727273,409.052218914032L742.6794545454545,519.5588457584381L744.2800568181818,205.82520008087158L744.813590909091,325.0060911178589L745.880659090909,521.497715473175L746.9477272727272,464.4295961856842L747.4812613636365,184.76304626464844L748.0147954545455,469.3786952495575L748.5483295454545,404.8764109611511L752.2830681818182,174.3132381439209L753.3501363636365,373.6325240135193L754.4172045454545,293.70238304138184L755.4842727272727,382.67292642593384L759.7525454545455,520.783837556839L760.8196136363637,285.42701625823975L761.3531477272727,524.0052247047424L765.0878863636365,422.9258947372437L766.1549545454545,309.87933826446533L767.2220227272727,508.3382909297943L767.7555568181817,520.6448910236359L768.289090909091,322.70177459716797L769.8896931818182,517.2061579227448L772.0238295454545,485.14841461181646L772.5573636363637,313.67699813842773L774.157965909091,467.8588154315949L774.6915,513.849958896637L776.2921022727272,239.82901763916013L776.8256363636362,509.97466707229614L777.3591704545455,458.60348701477045L778.4262386363637,321.2791213989258L780.560375,450.7562298774719L786.962784090909,412.4144678115845L788.5633863636363,358.9245328903198L789.0969204545455,475.9759383201599L791.2310568181817,503.8605217933654L793.8987272727272,35.622306823730476L794.9657954545455,335.3056411743164L795.4993295454545,517.0941350460052L796.0328636363637,494.0149540901184L796.5663977272727,172.68454360961914L797.0999318181817,506.41161084175116L797.6334659090909,509.58064413070684L798.167,293.25987815856934L799.7676022727272,504.73735213279724L800.3011363636363,242.78849029541018L800.8346704545455,68.37408447265626L801.3682045454545,515.2999851703644L803.5023409090909,499.3478639125824L804.035875,4.126855850219746L805.6364772727272,79.6595630645752L806.1700113636363,323.3413600921631L807.7706136363637,-92.6093578338623L809.3712159090909,285.87452697753906L811.5053522727272,501.7543714046479L823.2431022727272,484.37321519851685L824.8437045454546,362.9138112068176L825.9107727272727,-154.447811126709L839.2491249999999,495.4036934375763L840.3161931818182,185.29300117492676L840.8497272727273,465.90296459198L845.6515340909092,429.8733873367309L850.4533409090909,355.9089312553406L850.9868749999999,518.701423406601L852.0539431818182,465.7663135528565L852.5874772727273,276.4448585510254L854.1880795454545,-313.1733722686768L855.7886818181818,516.8201622962952L857.9228181818182,333.3738307952881L858.9898863636364,485.6332824230194L861.1240227272727,469.42333292961126L861.6575568181818,222.1757001876831L862.1910909090909,510.2239978313446L863.258159090909,432.1606397628784L865.3922954545454,163.5577974319458L865.9258295454545,236.9917039871216L866.9928977272727,503.3060147762298L867.5264318181818,523.196028470993L869.6605681818182,255.13993549346924L872.3282386363637,527.7823807001114L872.8617727272728,469.65602827072144L874.995909090909,209.72704219818115L876.5965113636364,475.8103930950164L878.7306477272728,54.41548919677736L881.9318522727273,475.39674091339117L899.5384772727273,475.7873206138611L900.6055454545454,233.4578046798706L901.1390795454545,455.3028016090393L901.6726136363636,147.8960838317871L902.2061477272728,322.5234727859497L903.80675,488.2056531906128L908.0750227272728,525.8734215497971L909.1420909090909,214.7413692474365L909.675625,438.55363225936895L911.2762272727274,501.9833538532257L911.8097613636364,334.08004093170166L912.3432954545455,434.0830192565918L912.8768295454545,-87.25007057189946L913.9438977272727,93.30126953125L917.6786363636364,472.58111000061035L924.6145795454545,448.98059606552124L926.748715909091,344.80292987823486L927.8157840909091,523.584831237793L928.3493181818181,461.97515296936035L929.9499204545455,356.5265851020813L930.4834545454545,475.68721079826355L942.2212045454545,470.39483857154846L945.9559431818182,167.03937053680417L947.5565454545455,445.8537735939026L948.6236136363636,272.3956069946289L951.8248181818182,454.35506677627563L953.4254204545455,486.00288462638855L953.9589545454546,93.30685615539551L955.5595568181817,511.59872913360596L959.2942954545455,465.2478084564209L960.8948977272727,328.8113012313843L961.4284318181817,503.1835999488831L968.364375,490.1490931510925L968.8979090909091,303.6842975616455L969.9649772727272,398.9623055458069L972.0991136363637,385.6610097885132L972.6326477272727,208.48069953918454L974.23325,213.08645629882812L975.3003181818182,311.5425205230713L976.3673863636363,517.7844080924988L976.9009204545455,487.4180290699005L977.4344545454546,178.78286933898923L979.0350568181817,524.6107788085938L998.7758181818182,485.11914706230164L999.8428863636364,331.25603008270264L1000.9099545454546,202.05425643920898L1001.4434886363637,416.67338371276855L1006.7788295454546,430.5632386207581L1008.3794318181818,69.18270683288574L1008.9129659090909,189.41977405548096L1011.5806363636364,460.40038871765137L1013.1812386363637,516.5017800331116L1014.2483068181818,340.55112171173096L1014.7818409090909,477.8601725101471L1016.9159772727272,429.3283734321594L1017.9830454545454,342.74265480041504L1020.1171818181818,426.4273805618286L1029.1872613636363,515.2911834716797L1029.7207954545454,332.6127223968506L1030.7878636363637,504.662098646164L1038.790875,492.85712623596186L1039.8579431818182,302.5453176498413L1040.3914772727273,502.6165506839752L1044.126215909091,443.94018888473516L1045.193284090909,315.0673484802246L1045.7268181818183,402.80088329315186L1046.2603522727272,350.7757501602173L1046.7938863636364,393.5805611610412L1049.995090909091,208.07163143157956L1050.528625,511.6298081874847L1052.1292272727273,438.7904000282287L1052.6627613636363,314.99842834472656L1053.1962954545454,484.5770924091339L1066.0011136363635,469.41966152191156L1066.5346477272728,234.47741889953613L1067.0681818181818,21.921913146972674L1067.601715909091,386.3707876205445L1068.668784090909,436.3457679748535L1069.2023181818183,316.0396423339844L1070.8029204545455,455.0734734535218L1074.004125,528.5465105772018L1075.0711931818182,331.4644775390625L1076.6717954545454,182.50757122039795L1080.406534090909,363.7042908668518L1080.940068181818,441.8710083961487L1089.4766136363635,530.5461140871048L1090.5436818181818,372.56141328811646L1091.61075,390.7060079574585L1093.7448863636364,209.0422658920288L1094.8119545454545,379.0777125358581L1095.8790227272727,458.46649026870733L1098.013159090909,219.93460655212402L1099.0802272727274,514.6672654151917L1101.2143636363635,203.53595638275146L1102.2814318181818,396.59017515182495L1103.882034090909,510.6441078186035L1106.0161704545455,304.7221927642822L1107.6167727272727,242.97616767883304L1108.150306818182,-91.40043449401857L1109.217375,221.4887113571167L1109.750909090909,373.29624795913696L1110.8179772727271,431.5154814720153L1111.8850454545454,509.22973775863653L1112.9521136363635,228.67131233215332L1113.4856477272726,465.52180194854736L1114.0191818181818,226.55082893371582L1117.2203863636364,533.5645781755447L1117.7539204545456,425.5413613319397L1118.2874545454545,235.4166078567505L1118.8209886363636,514.355396270752L1120.955125,401.8418231010437L1122.0221931818182,232.48678302764893L1125.7569318181818,139.07350444793698L1127.8910681818181,425.3417916297913L1131.6258068181817,524.244115114212L1132.159340909091,209.13734912872317L1132.692875,500.7976481914521L1133.226409090909,471.58170580863947L1133.7599431818182,351.7177186012268L1134.8270113636365,437.5477080345154L1136.4276136363637,497.1097779273987L1138.028215909091,309.22429275512695L1138.56175,519.5490138530731L1139.6288181818181,468.027188539505L1140.6958863636364,139.09015369415283L1141.7629545454545,420.0149869918823L1150.2995,-70.21413040161129L1151.3665681818181,133.11393165588382L1151.9001022727273,422.412962436676L1152.4336363636362,314.9595432281494L1154.0342386363636,172.37639427185061L1155.634840909091,510.7930107116699L1156.701909090909,372.4923686981201L1159.9031136363637,455.8426990509034L1160.9701818181818,496.3859505653381L1162.5707840909092,239.81820392608643L1164.1713863636362,461.8225440979004L1168.9731931818183,531.1511496305466L1169.5067272727272,252.43581581115725L1171.1073295454546,130.31799221038818L1172.1743977272727,520.8748691082001L1173.775,479.5117113590241L1174.3085340909092,254.20149326324466L1175.3756022727273,104.9322338104248L1176.9762045454545,522.8791880607605L1179.1103409090908,193.42239665985107L1179.643875,312.06752490997314L1180.1774090909091,453.24100542068487L1180.7109431818183,449.0723052024841L1181.2444772727272,221.16092586517337L1182.3115454545455,444.28507995605474L1182.8450795454546,493.97091794013977L1183.3786136363638,23.658578872680657L1183.9121477272727,238.37818241119385L1187.1133522727273,377.5011920928955L1188.1804204545454,500.38105750083923L1189.2474886363636,317.76629638671875L1189.7810227272728,233.86369228363037L1190.3145568181817,209.37851428985596L1190.8480909090908,433.9222378730774L1192.4486931818183,497.26103162765503L1193.5157613636363,151.2156171798706L1194.0492954545455,406.65201711654663L1196.716965909091,534.421627163887L1197.7840340909092,50.17573928833007L1201.5187727272728,396.40630054473877L1208.9882499999999,280.92007637023926L1209.5217840909093,331.91013526916504L1211.6559204545454,441.48008298873896L1212.1894545454545,249.6431121826172L1212.7229886363637,178.26193046569824L1213.7900568181817,516.7874929904938L1214.3235909090909,516.524181842804L1215.3906590909091,77.60003471374513L1216.9912613636363,464.33041286468506L1217.5247954545455,474.0483732223511L1218.5918636363638,374.03737449645996L1219.1253977272727,522.5156426429749L1219.6589318181818,295.16076850891113L1221.7930681818182,496.0516934394837L1222.3266022727273,298.56407356262207L1223.3936704545454,399.4230914115905L1223.9272045454545,294.88464546203613L1225.5278068181817,317.0411138534546L1226.0613409090909,511.6686725616455L1236.1984886363637,512.6189587116241L1236.7320227272728,327.6453285217285L1237.7990909090909,444.6604485511779L1239.9332272727272,440.81761169433594L1242.0673636363638,175.621808052063L1242.6008977272727,488.5693368911743L1245.2685681818182,340.6806650161743L1246.3356363636365,493.45829677581787L1246.8691704545454,477.29197549819946L1247.9362386363637,302.3804292678833L1248.4697727272728,520.1409955024719L1255.405715909091,424.69479417800903L1255.93925,140.44947338104248L1256.472784090909,130.58178043365476L1257.0063181818182,465.49514102935797L1271.9452727272728,513.3434152603149L1272.478806818182,340.348952293396L1273.0123409090909,242.55042266845703L1274.612943181818,393.3704266548157L1276.7470795454544,429.4428162574768L1279.948284090909,283.05286693573L1280.4818181818182,259.91705226898193L1282.6159545454545,483.2723045349121L1285.283625,455.90904712676996L1285.8171590909092,137.3068866729736L1286.350693181818,397.7649841308594L1292.7531022727271,470.32768845558167L1293.8201704545454,13.023582458496097L1294.3537045454545,397.0429129600525L1298.088443181818,71.15323638916016L1299.1555113636364,491.25312209129333L1300.2225795454544,85.05071067810059L1301.2896477272727,10.903652191162093L1303.9573181818182,499.24101281166077L1307.692056818182,463.1924977302552L1308.225590909091,330.6938829421997L1308.759125,492.031840801239L1311.9603295454544,473.383150100708L1313.0273977272727,252.0124216079712L1313.5609318181816,478.1939249038697" style="fill: none;" fill="none"></path></g></g></g></g></g></g><g transform="translate(30, 377)" clip-path="url(#clip_1)"><clipPath id="clip_1"><rect width="1467" height="23"></rect></clipPath><g><g><line x1="0" y1="0" x2="0" y2="5" style="visibility: inherit;" fill="rgb(0, 0, 0)" stroke="rgb(204, 204, 204)" stroke-width="1px"></line><line x1="133.38352272727272" y1="0" x2="133.38352272727272" y2="5" style="visibility: inherit;" fill="rgb(0, 0, 0)" stroke="rgb(204, 204, 204)" stroke-width="1px"></line><line x1="266.76704545454544" y1="0" x2="266.76704545454544" y2="5" style="visibility: inherit;" fill="rgb(0, 0, 0)" stroke="rgb(204, 204, 204)" stroke-width="1px"></line><line x1="400.15056818181813" y1="0" x2="400.15056818181813" y2="5" style="visibility: inherit;" fill="rgb(0, 0, 0)" stroke="rgb(204, 204, 204)" stroke-width="1px"></line><line x1="533.5340909090909" y1="0" x2="533.5340909090909" y2="5" style="visibility: inherit;" fill="rgb(0, 0, 0)" stroke="rgb(204, 204, 204)" stroke-width="1px"></line><line x1="666.9176136363636" y1="0" x2="666.9176136363636" y2="5" style="visibility: inherit;" fill="rgb(0, 0, 0)" stroke="rgb(204, 204, 204)" stroke-width="1px"></line><line x1="800.3011363636363" y1="0" x2="800.3011363636363" y2="5" style="visibility: inherit;" fill="rgb(0, 0, 0)" stroke="rgb(204, 204, 204)" stroke-width="1px"></line><line x1="933.6846590909091" y1="0" x2="933.6846590909091" y2="5" style="visibility: inherit;" fill="rgb(0, 0, 0)" stroke="rgb(204, 204, 204)" stroke-width="1px"></line><line x1="1067.0681818181818" y1="0" x2="1067.0681818181818" y2="5" style="visibility: inherit;" fill="rgb(0, 0, 0)" stroke="rgb(204, 204, 204)" stroke-width="1px"></line><line x1="1200.4517045454547" y1="0" x2="1200.4517045454547" y2="5" style="visibility: inherit;" fill="rgb(0, 0, 0)" stroke="rgb(204, 204, 204)" stroke-width="1px"></line><line x1="1333.8352272727273" y1="0" x2="1333.8352272727273" y2="5" style="visibility: inherit;" fill="rgb(0, 0, 0)" stroke="rgb(204, 204, 204)" stroke-width="1px"></line><line x1="1467.21875" y1="0" x2="1467.21875" y2="5" style="visibility: inherit;" fill="rgb(0, 0, 0)" stroke="rgb(204, 204, 204)" stroke-width="1px"></line></g><g transform="translate(0, 8)"><text x="0" y="0" dx="0em" dy="0.95em" style="text-anchor: middle; visibility: hidden; font-family: Roboto, sans-serif; font-size: 12px; font-weight: 200;" fill="rgb(33, 33, 33)" stroke="none" stroke-width="1px">-5k</text><text x="133.38352272727272" y="0" dx="0em" dy="0.95em" style="text-anchor: middle; visibility: inherit; font-family: Roboto, sans-serif; font-size: 12px; font-weight: 200;" fill="rgb(33, 33, 33)" stroke="none" stroke-width="1px">0</text><text x="266.76704545454544" y="0" dx="0em" dy="0.95em" style="text-anchor: middle; visibility: inherit; font-family: Roboto, sans-serif; font-size: 12px; font-weight: 200;" fill="rgb(33, 33, 33)" stroke="none" stroke-width="1px">5k</text><text x="400.15056818181813" y="0" dx="0em" dy="0.95em" style="text-anchor: middle; visibility: inherit; font-family: Roboto, sans-serif; font-size: 12px; font-weight: 200;" fill="rgb(33, 33, 33)" stroke="none" stroke-width="1px">10k</text><text x="533.5340909090909" y="0" dx="0em" dy="0.95em" style="text-anchor: middle; visibility: inherit; font-family: Roboto, sans-serif; font-size: 12px; font-weight: 200;" fill="rgb(33, 33, 33)" stroke="none" stroke-width="1px">15k</text><text x="666.9176136363636" y="0" dx="0em" dy="0.95em" style="text-anchor: middle; visibility: inherit; font-family: Roboto, sans-serif; font-size: 12px; font-weight: 200;" fill="rgb(33, 33, 33)" stroke="none" stroke-width="1px">20k</text><text x="800.3011363636363" y="0" dx="0em" dy="0.95em" style="text-anchor: middle; visibility: inherit; font-family: Roboto, sans-serif; font-size: 12px; font-weight: 200;" fill="rgb(33, 33, 33)" stroke="none" stroke-width="1px">25k</text><text x="933.6846590909091" y="0" dx="0em" dy="0.95em" style="text-anchor: middle; visibility: inherit; font-family: Roboto, sans-serif; font-size: 12px; font-weight: 200;" fill="rgb(33, 33, 33)" stroke="none" stroke-width="1px">30k</text><text x="1067.0681818181818" y="0" dx="0em" dy="0.95em" style="text-anchor: middle; visibility: inherit; font-family: Roboto, sans-serif; font-size: 12px; font-weight: 200;" fill="rgb(33, 33, 33)" stroke="none" stroke-width="1px">35k</text><text x="1200.4517045454547" y="0" dx="0em" dy="0.95em" style="text-anchor: middle; visibility: inherit; font-family: Roboto, sans-serif; font-size: 12px; font-weight: 200;" fill="rgb(33, 33, 33)" stroke="none" stroke-width="1px">40k</text><text x="1333.8352272727273" y="0" dx="0em" dy="0.95em" style="text-anchor: middle; visibility: inherit; font-family: Roboto, sans-serif; font-size: 12px; font-weight: 200;" fill="rgb(33, 33, 33)" stroke="none" stroke-width="1px">45k</text><text x="1467.21875" y="0" dx="0em" dy="0.95em" style="text-anchor: middle; visibility: hidden; font-family: Roboto, sans-serif; font-size: 12px; font-weight: 200;" fill="rgb(33, 33, 33)" stroke="none" stroke-width="1px">50k</text></g><line x1="0" y1="0" x2="1467.21875" y2="0" fill="rgb(0, 0, 0)" stroke="rgb(204, 204, 204)" stroke-width="1px"></line></g></g></g></g></svg>